STARTFONT 2.1
COMMENT
COMMENT Converted from OpenType font "manrope-semibold.otf" by "otf2bdf 3.0".
COMMENT
FONT -FreeType-Manrope SemiBold-Medium-R-Normal--61-440-100-100-P-286-ISO10646-1
SIZE 44 100 100
FONTBOUNDINGBOX 60 77 -2 -15
STARTPROPERTIES 19
FOUNDRY "FreeType"
FAMILY_NAME "Manrope SemiBold"
WEIGHT_NAME "Medium"
SLANT "R"
SETWIDTH_NAME "Normal"
ADD_STYLE_NAME ""
PIXEL_SIZE 61
POINT_SIZE 440
RESOLUTION_X 100
RESOLUTION_Y 100
SPACING "P"
AVERAGE_WIDTH 286
CHARSET_REGISTRY "ISO10646"
CHARSET_ENCODING "1"
FONT_ASCENT 65
FONT_DESCENT 18
COPYRIGHT "Copyright 2019-2021 The Manrope Project Authors (https://github.com/sharanda/manrope)"
_OTF_FONTFILE "manrope-semibold.otf"
_OTF_PSNAME "Manrope-SemiBold"
ENDPROPERTIES
CHARS 191
STARTCHAR 0020
ENCODING 32
SWIDTH 196 0
DWIDTH 12 0
BBX 0 0 0 0
BITMAP
ENDCHAR
STARTCHAR 0021
ENCODING 33
SWIDTH 343 0
DWIDTH 21 0
BBX 7 44 7 0
BITMAP
FE
FE
FE
FE
FE
FE
FE
FE
FE
FE
FE
FE
FE
FE
FE
FE
FE
FE
FE
FE
FE
FE
FE
FE
FE
FE
FE
FE
FE
FE
FE
FE
FE
00
00
00
00
00
FE
FE
FE
FE
FE
FE
ENDCHAR
STARTCHAR 0022
ENCODING 34
SWIDTH 441 0
DWIDTH 27 0
BBX 17 11 4 33
BITMAP
FC3F80
FC3F80
FC3F80
FC3F80
FC3F80
FC3F80
FC3F80
FC3F80
FC3F80
FC3F80
FC3F80
ENDCHAR
STARTCHAR 0023
ENCODING 35
SWIDTH 932 0
DWIDTH 57 0
BBX 49 44 4 0
BITMAP
00001FC03F0000
00001F803F0000
00001F803F0000
00001F807F0000
00003F807E0000
00003F007E0000
00003F00FE0000
00003F00FC0000
00007F00FC0000
00007E00FC0000
00007E01FC0000
07FFFFFFFFFF80
07FFFFFFFFFF80
0FFFFFFFFFFF00
0FFFFFFFFFFF00
0FFFFFFFFFFF00
0FFFFFFFFFFF00
0001F807F00000
0001F807F00000
0003F807E00000
0003F007E00000
0003F00FE00000
0003F00FE00000
0007F00FC00000
0007E00FC00000
0007E00FC00000
7FFFFFFFFFF800
7FFFFFFFFFF800
7FFFFFFFFFF800
FFFFFFFFFFF000
FFFFFFFFFFF000
FFFFFFFFFFF000
001F803F000000
001F807F000000
003F807E000000
003F007E000000
003F007E000000
003F00FE000000
007F00FC000000
007E00FC000000
007E01FC000000
007E01F8000000
00FE01F8000000
00FC01F8000000
ENDCHAR
STARTCHAR 0024
ENCODING 36
SWIDTH 621 0
DWIDTH 38 0
BBX 33 54 2 -5
BITMAP
0003F00000
0003F00000
0003F00000
0003F00000
0003F00000
001FFC0000
007FFF8000
01FFFFE000
03FFFFF000
07FFFFF800
0FFFFFFC00
1FF007FE00
1FC001FE00
3F8000FF00
3F80007F00
3F00003F80
3F00003F80
3F00003F00
3F80000000
3F80000000
3FC0000000
1FF0000000
1FFE000000
0FFFE00000
07FFFC0000
03FFFF8000
00FFFFF000
003FFFF800
0007FFFC00
00007FFE00
00000FFF00
000001FF80
0000007F80
0000003F80
0000001F80
0E00001F80
FE00001F80
FE00001F80
7F00001F80
7F80003F80
3FC0007F80
3FE000FF00
1FF801FF00
0FFFFFFE00
0FFFFFFC00
03FFFFF800
01FFFFF000
007FFFC000
000FFE0000
0003F00000
0003F00000
0003F00000
0003F00000
0003F00000
ENDCHAR
STARTCHAR 0025
ENCODING 37
SWIDTH 900 0
DWIDTH 55 0
BBX 47 44 4 0
BITMAP
01FC00000040
07FF000000E0
0FFFC00001F0
1FFFE00003F8
3FFFF00007F8
7FFFF0000FF0
7F03F8001FE0
FC01F8003FC0
FC00F8007F80
F800FC01FF00
F800FC03FE00
F800FC07FC00
FC00FC0FF800
FC01F81FF000
FE03F83FE000
7F07F87FC000
7FFFF0FF8000
3FFFE1FF0000
1FFFC3FE0000
0FFF87FC0000
03FE0FF80000
00201FF00000
00003FE00800
00007FC0FF80
0000FF83FFE0
0001FF07FFF0
0003FE0FFFF8
0007FC1FFFFC
000FF81FC1FC
001FF03F80FE
003FE03F007E
007FC07E007E
00FF807E003E
01FF007E003E
03FE007E003E
07FC003E007E
0FF8003F007E
1FF0003F81FC
3FE0001FFFFC
3FC0001FFFF8
1F80000FFFF0
0F000007FFE0
06000001FFC0
040000007F00
ENDCHAR
STARTCHAR 0026
ENCODING 38
SWIDTH 654 0
DWIDTH 40 0
BBX 37 44 3 0
BITMAP
001FF00000
007FFE0000
01FFFF8000
03FFFFC000
07FFFFE000
0FFFFFE000
0FF81FF000
1FE007F800
1FC003F800
1F80030000
3F80000000
3F80000000
3F80000000
3F80000000
1F80000000
1FC0000000
1FE0000000
0FF0000000
07F8000000
03FC000000
03FE000000
0FFF000000
1FFFC03F00
3FFFE03F00
3FFFF03F00
7F8FF83F00
7F03FC3F00
FE01FE3F00
FE00FF3F00
FE007FBF00
FE003FFF00
FE001FFF00
FE000FFF00
FE0003FF00
7F0001FE00
7F8001FF00
7FC003FF80
3FF81FFFC0
1FFFFFFFE0
1FFFFFFFF8
0FFFFFE7F0
03FFFFC3E0
00FFFF01C0
001FF80080
ENDCHAR
STARTCHAR 0027
ENCODING 39
SWIDTH 245 0
DWIDTH 15 0
BBX 6 11 4 33
BITMAP
FC
FC
FC
FC
FC
FC
FC
FC
FC
FC
FC
ENDCHAR
STARTCHAR 0028
ENCODING 40
SWIDTH 441 0
DWIDTH 27 0
BBX 16 63 9 -11
BITMAP
0030
0038
007C
00FF
01FE
01FC
03F8
03F8
07F0
07E0
0FE0
0FC0
1FC0
1F80
3F80
3F00
3F00
7F00
7E00
7E00
7E00
FC00
FC00
FC00
FC00
FC00
FC00
FC00
F800
F800
F800
F800
F800
F800
F800
FC00
FC00
FC00
FC00
FC00
FC00
FC00
7E00
7E00
7E00
7F00
3F00
3F00
3F80
1F80
1FC0
0FC0
0FE0
07E0
07F0
03F0
03F8
01FC
01FE
00FF
007C
0078
0030
ENDCHAR
STARTCHAR 0029
ENCODING 41
SWIDTH 441 0
DWIDTH 27 0
BBX 16 63 3 -11
BITMAP
0800
3C00
7C00
FE00
FF00
7F00
3F80
3F80
1FC0
0FC0
0FE0
07E0
07F0
03F0
03F8
01F8
01F8
01FC
00FC
00FC
00FC
007E
007E
007E
007E
007E
007E
003E
003E
003F
003F
003F
003F
003F
003E
003E
007E
007E
007E
007E
007E
007E
00FC
00FC
00FC
00FC
01F8
01F8
03F8
03F0
07F0
07E0
0FE0
0FE0
1FC0
1FC0
3F80
7F00
FF00
FE00
7C00
3C00
1800
ENDCHAR
STARTCHAR 002A
ENCODING 42
SWIDTH 458 0
DWIDTH 28 0
BBX 22 22 2 22
BITMAP
00FC00
00FC00
00FC00
00FC00
00FC00
60FC18
78FC78
7EFDF8
7FFFF8
FFFFFC
FFFFFC
3FFFF0
07FF80
01FE00
03FF00
07FF80
0FFFC0
1FCFE0
3F87F0
1F87E0
070380
020100
ENDCHAR
STARTCHAR 002B
ENCODING 43
SWIDTH 572 0
DWIDTH 35 0
BBX 27 27 4 9
BITMAP
001F0000
001F0000
001F0000
001F0000
001F0000
001F0000
001F0000
001F0000
001F0000
001F0000
001F0000
FFFFFFE0
FFFFFFE0
FFFFFFE0
FFFFFFE0
FFFFFFE0
001F0000
001F0000
001F0000
001F0000
001F0000
001F0000
001F0000
001F0000
001F0000
001F0000
001F0000
ENDCHAR
STARTCHAR 002C
ENCODING 44
SWIDTH 294 0
DWIDTH 18 0
BBX 6 14 4 -8
BITMAP
FC
FC
FC
FC
FC
FC
FC
1C
1C
1C
1C
FC
F8
F0
ENDCHAR
STARTCHAR 002D
ENCODING 45
SWIDTH 425 0
DWIDTH 26 0
BBX 18 5 4 17
BITMAP
FFFFC0
FFFFC0
FFFFC0
FFFFC0
FFFFC0
ENDCHAR
STARTCHAR 002E
ENCODING 46
SWIDTH 294 0
DWIDTH 18 0
BBX 7 7 5 0
BITMAP
FE
FE
FE
FE
FE
FE
FE
ENDCHAR
STARTCHAR 002F
ENCODING 47
SWIDTH 425 0
DWIDTH 26 0
BBX 18 44 4 0
BITMAP
001FC0
001F80
001F80
003F80
003F80
003F00
003F00
007F00
007F00
007E00
007E00
00FE00
00FE00
00FC00
00FC00
01FC00
01F800
01F800
03F800
03F800
03F000
03F000
07F000
07F000
07E000
07E000
0FE000
0FE000
0FC000
0FC000
1FC000
1F8000
1F8000
3F8000
3F8000
3F0000
3F0000
7F0000
7F0000
7E0000
7E0000
FE0000
FE0000
FC0000
ENDCHAR
STARTCHAR 0030
ENCODING 48
SWIDTH 638 0
DWIDTH 39 0
BBX 31 44 4 0
BITMAP
001FF000
00FFFE00
01FFFF00
07FFFFC0
0FFFFFE0
1FFFFFF0
1FF83FF0
3FE007F8
3F8003FC
7F0001FC
7F0001FC
7E0000FE
FE0000FE
FE0000FE
FE0000FE
FE0000FE
FE0000FE
FE0000FE
FE0000FE
FE0000FE
FE0000FE
FE0000FE
FE0000FE
FE0000FE
FE0000FE
FE0000FE
FE0000FE
FE0000FE
FE0000FE
FE0000FE
FE0000FE
FE0000FE
7E0000FE
7F0001FC
7F0001FC
3F8003FC
3FE00FF8
1FF83FF8
1FFFFFF0
0FFFFFE0
07FFFFC0
01FFFF00
007FFE00
000FF000
ENDCHAR
STARTCHAR 0031
ENCODING 49
SWIDTH 425 0
DWIDTH 26 0
BBX 14 44 4 0
BITMAP
01FC
07FC
0FFC
3FFC
FFFC
FFFC
FFFC
FEFC
FCFC
F0FC
C0FC
80FC
00FC
00FC
00FC
00FC
00FC
00FC
00FC
00FC
00FC
00FC
00FC
00FC
00FC
00FC
00FC
00FC
00FC
00FC
00FC
00FC
00FC
00FC
00FC
00FC
00FC
00FC
00FC
00FC
00FC
00FC
00FC
00FC
ENDCHAR
STARTCHAR 0032
ENCODING 50
SWIDTH 589 0
DWIDTH 36 0
BBX 30 44 3 0
BITMAP
001FE000
00FFFC00
03FFFF00
07FFFF80
0FFFFFC0
1FFFFFE0
3FF83FF0
3FC00FF0
7F8007F8
7F0003F8
7F0003F8
FE0001FC
FE0001FC
FE0001FC
000001FC
000001FC
000001FC
000001F8
000003F8
000007F8
00000FF0
00001FF0
00003FE0
00007FC0
0000FF80
0001FF00
0003FE00
0007FC00
001FF800
003FF000
007FE000
00FF8000
01FF0000
03FE0000
07FC0000
1FF80000
3FF00000
7FC00000
FFFFFFFC
FFFFFFFC
FFFFFFFC
FFFFFFFC
FFFFFFFC
FFFFFFFC
ENDCHAR
STARTCHAR 0033
ENCODING 51
SWIDTH 572 0
DWIDTH 35 0
BBX 28 44 3 0
BITMAP
7FFFFFF0
7FFFFFF0
7FFFFFF0
7FFFFFF0
7FFFFFF0
7FFFFFF0
00001FE0
00003FC0
00007F80
0000FF00
0001FE00
0003FC00
000FF800
001FF000
003FE000
007FC000
00FFC000
01FFF800
01FFFE00
01FFFF00
00FFFF80
007FFFC0
00403FC0
00001FE0
00000FE0
000007F0
000007F0
000007F0
000003F0
000003F0
000003F0
000003F0
040007F0
7C0007F0
FE000FE0
FE000FE0
FF803FE0
7FE0FFC0
3FFFFF80
1FFFFF00
0FFFFE00
07FFFC00
01FFF000
007FC000
ENDCHAR
STARTCHAR 0034
ENCODING 52
SWIDTH 605 0
DWIDTH 37 0
BBX 31 44 3 0
BITMAP
0003F800
0003F800
0007F000
0007F000
000FF000
000FE000
001FE000
001FC000
003FC000
003F8000
007F8000
007F0000
00FF0000
00FE0000
01FE0000
01FC0000
03FC0000
03F80000
03F80FC0
07F00FC0
07F00FC0
0FE00FC0
0FE00FC0
1FC00FC0
1FC00FC0
3F800FC0
3F800FC0
7F800FC0
7F000FC0
FF000FC0
FFFFFFFE
FFFFFFFE
FFFFFFFE
FFFFFFFE
FFFFFFFE
FFFFFFFE
00000FC0
00000FC0
00000FC0
00000FC0
00000FC0
00000FC0
00000FC0
00000FC0
ENDCHAR
STARTCHAR 0035
ENCODING 53
SWIDTH 589 0
DWIDTH 36 0
BBX 30 44 3 0
BITMAP
1FFFFFE0
1FFFFFE0
1FFFFFE0
1FFFFFE0
1FFFFFE0
3FFFFFE0
3F800000
3F000000
3F000000
3F000000
3F000000
3F000000
3F000000
3F000000
3F000000
3F07C000
3F3FF800
3FFFFE00
3FFFFF80
3FFFFFC0
3FFFFFE0
3FE07FE0
7F801FF0
0F0007F0
000007F8
000003F8
000001F8
000001F8
000001FC
000001FC
000001FC
000001F8
1C0001F8
FE0003F8
FF0007F8
7F800FF0
7FC01FF0
3FF07FE0
1FFFFFC0
0FFFFF80
07FFFF00
03FFFE00
00FFF800
003FC000
ENDCHAR
STARTCHAR 0036
ENCODING 54
SWIDTH 621 0
DWIDTH 38 0
BBX 30 44 4 0
BITMAP
000FF000
007FFE00
01FFFF80
03FFFFC0
0FFFFFE0
0FFFFFF0
1FF81FC0
3FE00780
3FC00300
7F800000
7F000000
7E000000
FE000000
FE000000
FE000000
FE000000
FE07F000
FE3FFE00
FEFFFF80
FFFFFFC0
FFFFFFE0
FFFFFFF0
FFF01FF0
FFC007F8
FF8003F8
FF0001FC
FF0001FC
FE0000FC
FE0000FC
FE0000FC
FE0000FC
FE0000FC
7E0001FC
7F0001FC
7F0003FC
3F8007F8
3FE00FF8
1FF83FF0
0FFFFFE0
0FFFFFC0
03FFFF80
01FFFF00
007FFC00
000FE000
ENDCHAR
STARTCHAR 0037
ENCODING 55
SWIDTH 523 0
DWIDTH 32 0
BBX 27 44 2 0
BITMAP
FFFFFFE0
FFFFFFE0
FFFFFFE0
FFFFFFE0
FFFFFFE0
FFFFFFE0
00000FE0
00001FC0
00001FC0
00001FC0
00003F80
00003F80
00007F00
00007F00
00007E00
0000FE00
0000FE00
0001FC00
0001FC00
0001F800
0003F800
0003F800
0007F000
0007F000
0007E000
000FE000
000FE000
001FC000
001FC000
003F8000
003F8000
003F8000
007F0000
007F0000
00FE0000
00FE0000
00FE0000
01FC0000
01FC0000
03F80000
03F80000
03F00000
07F00000
07F00000
ENDCHAR
STARTCHAR 0038
ENCODING 56
SWIDTH 605 0
DWIDTH 37 0
BBX 29 44 4 0
BITMAP
003FE000
01FFF800
03FFFE00
0FFFFF00
1FFFFF80
1FFFFFC0
3FF07FE0
3FC01FE0
7F800FE0
7F0007F0
7F0007F0
7F0007F0
7F0007F0
7F0007F0
7F0007F0
7F800FE0
3FC01FE0
3FF07FE0
1FFFFFC0
0FFFFF80
07FFFF00
0FFFFF80
1FFFFFC0
3FFFFFC0
7FE03FE0
7F800FF0
FF0007F0
FE0007F8
FE0003F8
FE0003F8
FC0003F8
FC0003F8
FE0003F8
FE0003F8
FE0007F8
FF0007F0
7F800FF0
7FE07FE0
3FFFFFE0
1FFFFFC0
0FFFFF80
07FFFE00
01FFFC00
003FE000
ENDCHAR
STARTCHAR 0039
ENCODING 57
SWIDTH 621 0
DWIDTH 38 0
BBX 31 44 3 0
BITMAP
000FE000
007FFC00
01FFFF00
03FFFF80
07FFFFC0
0FFFFFE0
1FF83FF0
3FE00FF8
3F8003F8
7F8001FC
7F0001FC
7E0000FC
7E0000FC
FE0000FE
FE0000FE
7E0000FE
7E0000FE
7F0001FE
7F0001FE
3F8003FE
3FC007FE
1FF01FFE
1FFFFFFE
0FFFFFFE
07FFFFFE
03FFFEFE
00FFF8FE
001FC0FE
000000FE
000000FE
000000FE
000000FC
000000FC
000001FC
000003FC
018007F8
03C00FF8
07F03FF0
1FFFFFE0
0FFFFFC0
07FFFF80
03FFFF00
00FFFC00
001FE000
ENDCHAR
STARTCHAR 003A
ENCODING 58
SWIDTH 327 0
DWIDTH 20 0
BBX 7 25 7 4
BITMAP
FE
FE
FE
FE
FE
FE
FE
00
00
00
00
00
00
00
00
00
00
00
FC
FC
FC
FC
FC
FC
FC
ENDCHAR
STARTCHAR 003B
ENCODING 59
SWIDTH 327 0
DWIDTH 20 0
BBX 6 40 7 -8
BITMAP
FC
FC
FC
FC
FC
FC
FC
00
00
00
00
00
00
00
00
00
00
00
00
00
00
00
00
00
00
00
FC
FC
FC
FC
FC
FC
FC
1C
1C
1C
1C
FC
F8
F0
ENDCHAR
STARTCHAR 003C
ENCODING 60
SWIDTH 621 0
DWIDTH 38 0
BBX 18 29 9 4
BITMAP
000200
000700
000F80
001FC0
003FC0
007F80
00FF00
01FE00
03F800
07F000
0FE000
1FC000
3F8000
7F0000
FE0000
FF0000
7F8000
3FC000
1FE000
0FF000
07F800
03FC00
01FE00
00FF00
007F80
003FC0
001F80
000F00
000600
ENDCHAR
STARTCHAR 003D
ENCODING 61
SWIDTH 752 0
DWIDTH 46 0
BBX 31 16 7 14
BITMAP
FFFFFFFE
FFFFFFFE
FFFFFFFE
FFFFFFFE
FFFFFFFE
00000000
00000000
00000000
00000000
00000000
00000000
FFFFFFFE
FFFFFFFE
FFFFFFFE
FFFFFFFE
FFFFFFFE
ENDCHAR
STARTCHAR 003E
ENCODING 62
SWIDTH 621 0
DWIDTH 38 0
BBX 18 29 12 4
BITMAP
100000
380000
7C0000
FE0000
FF0000
7F8000
3FC000
1FE000
0FF000
07F800
03FC00
01FE00
00FF00
007F80
003FC0
007F80
00FF00
01FE00
03FC00
07F800
0FF000
1FE000
3FC000
7F8000
FF0000
FE0000
7C0000
380000
100000
ENDCHAR
STARTCHAR 003F
ENCODING 63
SWIDTH 540 0
DWIDTH 33 0
BBX 27 44 3 0
BITMAP
007FC000
01FFF800
07FFFC00
0FFFFF00
1FFFFF00
3FFFFF80
3FE0FFC0
7F803FC0
7F001FE0
FE000FE0
FE000FE0
FE000FE0
00000FE0
00000FE0
00000FE0
00000FE0
00001FC0
00003FC0
00007F80
0000FF80
0001FF00
0003FE00
0007FC00
000FF800
001FE000
001FC000
003FC000
003F8000
003F8000
003F0000
007F0000
007F0000
00000000
00000000
00000000
00000000
00000000
007F0000
007F0000
007F0000
007F0000
007F0000
007F0000
007F0000
ENDCHAR
STARTCHAR 0040
ENCODING 64
SWIDTH 916 0
DWIDTH 56 0
BBX 46 45 5 -6
BITMAP
00007FF80000
0007FFFF0000
001FFFFFE000
007FFFFFF800
00FFFFFFFC00
01FFC00FFE00
03FE0001FF00
07F800007F80
0FF000003FC0
0FC000000FE0
1F80000007E0
3F80000007F0
3F001F8003F0
3E00FFFF81F0
7E01FFFF81F8
7C03FFFF81F8
7C07FFFF80F8
FC07F87F80F8
FC0FE03F80FC
FC0FC01F80FC
F80F801F00FC
F80F800F00FC
F80F800F00FC
F80F800F00FC
F80F801F00F8
FC0FC01F80F8
FC0FC01F81F8
FC07E03F81F8
FC07FFFFC3F0
7C03FFFFFFF0
7E03FFFFFFE0
7E00FFF3FFE0
3F007FE1FFC0
3F8007007F00
1F8000000000
1FC000000000
0FF000000000
07F800000000
03FE00000000
01FFC00F0000
00FFFFFF0000
007FFFFF0000
001FFFFF8000
0007FFFF0000
00007FF00000
ENDCHAR
STARTCHAR 0041
ENCODING 65
SWIDTH 654 0
DWIDTH 40 0
BBX 38 44 1 0
BITMAP
0003FF0000
0003FF0000
0003FF8000
0007FF8000
0007FF8000
0007FFC000
000FFFC000
000FFFC000
000FCFC000
001FCFE000
001FCFE000
001F87E000
003F87F000
003F87F000
003F03F000
007F03F800
007F03F800
007E01F800
00FE01FC00
00FE01FC00
00FC00FC00
00FC00FE00
01FC00FE00
01F8007E00
01F8007F00
03F8007F00
03F0003F00
03F0003F80
07FFFFFF80
07FFFFFF80
07FFFFFFC0
0FFFFFFFC0
0FFFFFFFC0
0FFFFFFFE0
1FC0000FE0
1FC00007E0
1F800007F0
3F800007F0
3F800003F0
3F000003F8
7F000003F8
7F000001F8
7E000001FC
FE000001FC
ENDCHAR
STARTCHAR 0042
ENCODING 66
SWIDTH 621 0
DWIDTH 38 0
BBX 32 44 4 0
BITMAP
FFFFF800
FFFFFF00
FFFFFFC0
FFFFFFE0
FFFFFFF0
FFFFFFF0
FE000FF8
FE0003F8
FE0001FC
FE0001FC
FE0000FC
FE0000FC
FE0000FC
FE0000FC
FE0001FC
FE0001FC
FE0003F8
FE000FF8
FFFFFFF0
FFFFFFE0
FFFFFFC0
FFFFFFE0
FFFFFFF0
FFFFFFFC
FE0007FC
FE0001FE
FE0000FE
FE00007F
FE00007F
FE00003F
FE00003F
FE00003F
FE00003F
FE00007F
FE00007F
FE0000FF
FE0001FE
FE0007FE
FFFFFFFE
FFFFFFFC
FFFFFFF8
FFFFFFF0
FFFFFFC0
FFFFFF00
ENDCHAR
STARTCHAR 0043
ENCODING 67
SWIDTH 736 0
DWIDTH 45 0
BBX 40 44 2 0
BITMAP
0001FFC000
000FFFF800
003FFFFE00
00FFFFFF80
01FFFFFFC0
03FFFFFFE0
07FF80FFF0
0FFC001FF8
1FF00007FC
1FE00003FC
3FC00001FE
3F800000FE
7F800000FF
7F0000007F
7F00000078
FE00000000
FE00000000
FE00000000
FE00000000
FE00000000
FE00000000
FE00000000
FE00000000
FE00000000
FE00000000
FE00000000
FE00000000
FE00000000
7E00000000
7F00000078
7F0000007F
7F800000FF
3F800000FE
3FC00001FE
1FE00003FC
1FF00007FC
0FFC001FF8
07FF80FFF0
03FFFFFFE0
01FFFFFFC0
00FFFFFF80
003FFFFE00
000FFFF800
0000FFC000
ENDCHAR
STARTCHAR 0044
ENCODING 68
SWIDTH 687 0
DWIDTH 42 0
BBX 35 44 4 0
BITMAP
FFFFF80000
FFFFFF0000
FFFFFFC000
FFFFFFF000
FFFFFFF800
FFFFFFFC00
FE000FFE00
FE0003FE00
FE0000FF00
FE00007F80
FE00007F80
FE00003F80
FE00001FC0
FE00001FC0
FE00001FC0
FE00000FE0
FE00000FE0
FE00000FE0
FE00000FE0
FE00000FE0
FE00000FE0
FE000007E0
FE000007E0
FE000007E0
FE00000FE0
FE00000FE0
FE00000FE0
FE00000FE0
FE00000FE0
FE00001FC0
FE00001FC0
FE00001FC0
FE00003F80
FE00007F80
FE00007F80
FE0000FF00
FE0003FE00
FE000FFE00
FFFFFFFC00
FFFFFFF800
FFFFFFF000
FFFFFFC000
FFFFFF0000
FFFFF80000
ENDCHAR
STARTCHAR 0045
ENCODING 69
SWIDTH 572 0
DWIDTH 35 0
BBX 28 44 4 0
BITMAP
FFFFFFF0
FFFFFFF0
FFFFFFF0
FFFFFFF0
FFFFFFF0
FFFFFFF0
FE000000
FE000000
FE000000
FE000000
FE000000
FE000000
FE000000
FE000000
FE000000
FE000000
FE000000
FE000000
FFFFFF80
FFFFFF80
FFFFFF80
FFFFFF80
FFFFFF80
FFFFFF80
FE000000
FE000000
FE000000
FE000000
FE000000
FE000000
FE000000
FE000000
FE000000
FE000000
FE000000
FE000000
FE000000
FE000000
FFFFFFF0
FFFFFFF0
FFFFFFF0
FFFFFFF0
FFFFFFF0
FFFFFFF0
ENDCHAR
STARTCHAR 0046
ENCODING 70
SWIDTH 523 0
DWIDTH 32 0
BBX 26 44 4 0
BITMAP
FFFFFFC0
FFFFFFC0
FFFFFFC0
FFFFFFC0
FFFFFFC0
FFFFFFC0
FE000000
FE000000
FE000000
FE000000
FE000000
FE000000
FE000000
FE000000
FE000000
FE000000
FE000000
FE000000
FE000000
FFFFFE00
FFFFFE00
FFFFFE00
FFFFFE00
FFFFFE00
FFFFFE00
FE000000
FE000000
FE000000
FE000000
FE000000
FE000000
FE000000
FE000000
FE000000
FE000000
FE000000
FE000000
FE000000
FE000000
FE000000
FE000000
FE000000
FE000000
FE000000
ENDCHAR
STARTCHAR 0047
ENCODING 71
SWIDTH 720 0
DWIDTH 44 0
BBX 40 44 2 0
BITMAP
0001FF8000
000FFFF800
003FFFFE00
00FFFFFF80
01FFFFFFC0
03FFFFFFE0
07FF80FFF0
0FFC001FF0
1FF0000FF8
1FE00003FC
3FC00003FC
3F800001FC
7F800000FE
7F000000F8
7F00000000
FE00000000
FE00000000
FE00000000
FE00000000
FE00000000
FE00000000
FE00007FFF
FE00007FFF
FE00007FFF
FE00007FFF
FE00007FFF
FE0000007F
FE0000007F
7E0000007F
7F0000007F
7F000000FE
7F800000FE
3F800001FE
3FC00001FC
1FE00003FC
0FF00007F8
0FFC001FF0
07FF807FF0
03FFFFFFE0
01FFFFFFC0
00FFFFFF00
003FFFFE00
000FFFF800
0000FF8000
ENDCHAR
STARTCHAR 0048
ENCODING 72
SWIDTH 703 0
DWIDTH 43 0
BBX 35 44 4 0
BITMAP
FE000007E0
FE000007E0
FE000007E0
FE000007E0
FE000007E0
FE000007E0
FE000007E0
FE000007E0
FE000007E0
FE000007E0
FE000007E0
FE000007E0
FE000007E0
FE000007E0
FE000007E0
FE000007E0
FE000007E0
FE000007E0
FE000007E0
FFFFFFFFE0
FFFFFFFFE0
FFFFFFFFE0
FFFFFFFFE0
FFFFFFFFE0
FFFFFFFFE0
FE000007E0
FE000007E0
FE000007E0
FE000007E0
FE000007E0
FE000007E0
FE000007E0
FE000007E0
FE000007E0
FE000007E0
FE000007E0
FE000007E0
FE000007E0
FE000007E0
FE000007E0
FE000007E0
FE000007E0
FE000007E0
FE000007E0
ENDCHAR
STARTCHAR 0049
ENCODING 73
SWIDTH 261 0
DWIDTH 16 0
BBX 6 44 5 0
BITMAP
FC
FC
FC
FC
FC
FC
FC
FC
FC
FC
FC
FC
FC
FC
FC
FC
FC
FC
FC
FC
FC
FC
FC
FC
FC
FC
FC
FC
FC
FC
FC
FC
FC
FC
FC
FC
FC
FC
FC
FC
FC
FC
FC
FC
ENDCHAR
STARTCHAR 004A
ENCODING 74
SWIDTH 490 0
DWIDTH 30 0
BBX 25 44 0 0
BITMAP
00003F80
00003F80
00003F80
00003F80
00003F80
00003F80
00003F80
00003F80
00003F80
00003F80
00003F80
00003F80
00003F80
00003F80
00003F80
00003F80
00003F80
00003F80
00003F80
00003F80
00003F80
00003F80
00003F80
00003F80
00003F80
00003F80
00003F80
00003F80
00003F80
00003F80
00003F80
00003F80
00003F80
04003F80
FE003F80
FE007F80
7F007F00
7FC1FF00
3FFFFE00
3FFFFE00
1FFFFC00
07FFF800
03FFE000
007F8000
ENDCHAR
STARTCHAR 004B
ENCODING 75
SWIDTH 621 0
DWIDTH 38 0
BBX 34 44 4 0
BITMAP
FE00007F80
FE0000FF00
FE0001FE00
FE0003FC00
FE0007F800
FE000FF000
FE001FE000
FE003FC000
FE007F8000
FE007F0000
FE00FF0000
FE01FE0000
FE03FC0000
FE07F80000
FE0FF00000
FE1FE00000
FE3FC00000
FE7F800000
FEFF000000
FEFE000000
FFFC000000
FFFC000000
FFFE000000
FFFE000000
FEFF000000
FE7F800000
FE3FC00000
FE1FE00000
FE0FF00000
FE07F80000
FE03FC0000
FE01FE0000
FE00FF0000
FE00FF8000
FE007FC000
FE003FE000
FE001FF000
FE000FF000
FE0007F800
FE0003FC00
FE0001FE00
FE0000FF00
FE00007F80
FE00003FC0
ENDCHAR
STARTCHAR 004C
ENCODING 76
SWIDTH 523 0
DWIDTH 32 0
BBX 26 44 5 0
BITMAP
FC000000
FC000000
FC000000
FC000000
FC000000
FC000000
FC000000
FC000000
FC000000
FC000000
FC000000
FC000000
FC000000
FC000000
FC000000
FC000000
FC000000
FC000000
FC000000
FC000000
FC000000
FC000000
FC000000
FC000000
FC000000
FC000000
FC000000
FC000000
FC000000
FC000000
FC000000
FC000000
FC000000
FC000000
FC000000
FC000000
FC000000
FC000000
FFFFFFC0
FFFFFFC0
FFFFFFC0
FFFFFFC0
FFFFFFC0
FFFFFFC0
ENDCHAR
STARTCHAR 004D
ENCODING 77
SWIDTH 850 0
DWIDTH 52 0
BBX 44 44 4 0
BITMAP
FC00000003F0
FE00000007F0
FE00000007F0
FF0000000FF0
FF0000000FF0
FF8000001FF0
FF8000001FF0
FFC000003FF0
FFC000003FF0
FFE000007FF0
FFE000007FF0
FFF00000FFF0
FFF00000FFF0
FFF80001FFF0
FDF80001FBF0
FDFC0003FBF0
FDFC0003F3F0
FCFC0007F3F0
FCFE0007E3F0
FC7E0007E3F0
FC7F000FE3F0
FC3F000FC3F0
FC3F801FC3F0
FC1F801F83F0
FC1FC03F83F0
FC0FC03F03F0
FC0FE07F03F0
FC07E07E03F0
FC07F0FE03F0
FC03F0FC03F0
FC03F9FC03F0
FC01F9F803F0
FC01FFF803F0
FC00FFF003F0
FC00FFF003F0
FC00FFE003F0
FC007FE003F0
FC007FC003F0
FC003FC003F0
FC003FC003F0
FC001F8003F0
FC001F8003F0
FC000F0003F0
FC000F0003F0
ENDCHAR
STARTCHAR 004E
ENCODING 78
SWIDTH 703 0
DWIDTH 43 0
BBX 35 44 4 0
BITMAP
FE00000FE0
FF00000FE0
FF00000FE0
FF80000FE0
FFC0000FE0
FFC0000FE0
FFE0000FE0
FFF0000FE0
FFF0000FE0
FFF8000FE0
FFFC000FE0
FFFC000FE0
FEFE000FE0
FEFF000FE0
FE7F000FE0
FE3F800FE0
FE3FC00FE0
FE1FC00FE0
FE0FE00FE0
FE0FF00FE0
FE07F00FE0
FE07F80FE0
FE03FC0FE0
FE01FC0FE0
FE01FE0FE0
FE00FF0FE0
FE007F0FE0
FE007F8FE0
FE003FCFE0
FE001FCFE0
FE001FEFE0
FE000FFFE0
FE0007FFE0
FE0007FFE0
FE0003FFE0
FE0001FFE0
FE0001FFE0
FE0000FFE0
FE00007FE0
FE00007FE0
FE00003FE0
FE00001FE0
FE00001FE0
FE00000FE0
ENDCHAR
STARTCHAR 004F
ENCODING 79
SWIDTH 736 0
DWIDTH 45 0
BBX 41 44 2 0
BITMAP
0001FFC00000
000FFFF80000
003FFFFE0000
00FFFFFF8000
01FFFFFFC000
03FFFFFFE000
07FF80FFF000
0FFC001FF800
1FF00007FC00
1FE00003FC00
3FC00001FE00
3F800000FE00
7F800000FF00
7F0000007F00
7F0000007F00
FE0000003F80
FE0000003F80
FE0000003F80
FE0000003F80
FE0000003F80
FE0000001F80
FE0000001F80
FE0000001F80
FE0000001F80
FE0000003F80
FE0000003F80
FE0000003F80
FE0000003F80
7E0000003F80
7F0000007F00
7F0000007F00
7F800000FF00
3F800000FE00
3FC00001FE00
1FE00003FC00
1FF00007FC00
0FFC001FF800
07FF807FF000
03FFFFFFE000
01FFFFFFC000
00FFFFFF8000
003FFFFE0000
000FFFF80000
0000FFC00000
ENDCHAR
STARTCHAR 0050
ENCODING 80
SWIDTH 621 0
DWIDTH 38 0
BBX 32 44 4 0
BITMAP
FFFFFE00
FFFFFFC0
FFFFFFE0
FFFFFFF0
FFFFFFF8
FFFFFFFC
FE0007FE
FE0001FE
FE0000FF
FE00007F
FE00007F
FE00003F
FE00003F
FE00003F
FE00003F
FE00003F
FE00003F
FE00007F
FE00007F
FE0000FF
FE0001FE
FE0007FE
FFFFFFFC
FFFFFFF8
FFFFFFF0
FFFFFFE0
FFFFFFC0
FFFFFE00
FE000000
FE000000
FE000000
FE000000
FE000000
FE000000
FE000000
FE000000
FE000000
FE000000
FE000000
FE000000
FE000000
FE000000
FE000000
FE000000
ENDCHAR
STARTCHAR 0051
ENCODING 81
SWIDTH 736 0
DWIDTH 45 0
BBX 41 44 2 0
BITMAP
0001FFC00000
000FFFF80000
003FFFFE0000
00FFFFFF8000
01FFFFFFC000
03FFFFFFE000
07FF80FFF000
0FFC001FF800
1FF00007FC00
1FE00003FC00
3FC00001FE00
3F800000FE00
7F800000FF00
7F0000007F00
7F0000007F00
FE0000003F80
FE0000003F80
FE0000003F80
FE0000003F80
FE0000003F80
FE0000001F80
FE0000001F80
FE0000001F80
FE0000001F80
FE0000003F80
FE0000003F80
FE0000003F80
FE0000003F80
7E0000083F80
7F00001C7F00
7F00003E7F00
7F80007F7F00
3F80007FFE00
3FC0003FFE00
1FE0001FFC00
1FF0000FFC00
0FFC001FF800
07FF807FFC00
03FFFFFFFE00
01FFFFFFFF00
00FFFFFFFF00
003FFFFE3E00
000FFFF81C00
0000FFC00800
ENDCHAR
STARTCHAR 0052
ENCODING 82
SWIDTH 654 0
DWIDTH 40 0
BBX 33 44 4 0
BITMAP
FFFFFE0000
FFFFFFC000
FFFFFFE000
FFFFFFF000
FFFFFFF800
FFFFFFFC00
FE0007FE00
FE0001FE00
FE0000FF00
FE00007F00
FE00007F00
FE00003F00
FE00003F00
FE00003F00
FE00003F00
FE00003F00
FE00003F00
FE00007F00
FE00007F00
FE0000FF00
FE0001FE00
FE0007FE00
FFFFFFFC00
FFFFFFF800
FFFFFFF000
FFFFFFE000
FFFFFFC000
FFFFFF8000
FE001FC000
FE001FC000
FE001FE000
FE000FE000
FE000FF000
FE0007F000
FE0007F800
FE0003F800
FE0003FC00
FE0001FC00
FE0001FE00
FE0000FE00
FE0000FF00
FE00007F00
FE00007F80
FE00003F80
ENDCHAR
STARTCHAR 0053
ENCODING 83
SWIDTH 638 0
DWIDTH 39 0
BBX 35 44 2 0
BITMAP
0007FC0000
007FFF8000
00FFFFE000
03FFFFF800
07FFFFFC00
0FFFFFFE00
1FFC07FF00
1FF001FF80
3FC0007F80
3F80003FC0
3F80001FC0
3F80001FC0
3F80000FE0
3F80000800
3FC0000000
3FE0000000
1FF0000000
1FFF000000
0FFFE00000
07FFFE0000
03FFFFC000
00FFFFF800
001FFFFE00
0003FFFF00
00003FFF80
000003FFC0
0000007FC0
0000003FE0
0000001FE0
0000000FE0
1E00000FE0
FE00000FE0
7F00000FE0
7F80000FE0
7F80001FE0
3FE0003FC0
3FF0007FC0
1FFE03FF80
0FFFFFFF00
07FFFFFE00
03FFFFFC00
00FFFFF800
003FFFE000
0007FE0000
ENDCHAR
STARTCHAR 0054
ENCODING 84
SWIDTH 605 0
DWIDTH 37 0
BBX 35 44 1 0
BITMAP
FFFFFFFFE0
FFFFFFFFE0
FFFFFFFFE0
FFFFFFFFE0
FFFFFFFFE0
FFFFFFFFE0
0003F80000
0003F80000
0003F80000
0003F80000
0003F80000
0003F80000
0003F80000
0003F80000
0003F80000
0003F80000
0003F80000
0003F80000
0003F80000
0003F80000
0003F80000
0003F80000
0003F80000
0003F80000
0003F80000
0003F80000
0003F80000
0003F80000
0003F80000
0003F80000
0003F80000
0003F80000
0003F80000
0003F80000
0003F80000
0003F80000
0003F80000
0003F80000
0003F80000
0003F80000
0003F80000
0003F80000
0003F80000
0003F80000
ENDCHAR
STARTCHAR 0055
ENCODING 85
SWIDTH 720 0
DWIDTH 44 0
BBX 35 44 4 0
BITMAP
FE000007E0
FE000007E0
FE000007E0
FE000007E0
FE000007E0
FE000007E0
FE000007E0
FE000007E0
FE000007E0
FE000007E0
FE000007E0
FE000007E0
FE000007E0
FE000007E0
FE000007E0
FE000007E0
FE000007E0
FE000007E0
FE000007E0
FE000007E0
FE000007E0
FE000007E0
FE000007E0
FE000007E0
FE000007E0
FE000007E0
FE000007E0
FE000007E0
FE000007E0
FE000007E0
7E00000FE0
7F00000FE0
7F00001FE0
7F80001FC0
3FC0003FC0
3FE0007F80
1FF001FF80
1FFC07FF00
0FFFFFFE00
07FFFFFC00
03FFFFF800
00FFFFF000
003FFFC000
0007FC0000
ENDCHAR
STARTCHAR 0056
ENCODING 86
SWIDTH 621 0
DWIDTH 38 0
BBX 38 44 0 0
BITMAP
FE000001FC
7E000001FC
7F000001F8
7F000003F8
3F000003F8
3F800003F0
3F800007F0
1F800007F0
1FC00007E0
1FC0000FE0
0FC0000FE0
0FE0000FC0
0FE0001FC0
07E0001FC0
07F0001F80
07F0003F80
03F0003F80
03F8003F00
03F8007F00
01F8007F00
01FC007E00
01FC00FE00
00FC00FE00
00FE00FC00
00FE01FC00
007E01FC00
007F01F800
007F03F800
003F03F800
003F83F000
003F87F000
001F87F000
001F87F000
001FCFE000
001FCFE000
000FCFE000
000FFFC000
000FFFC000
0007FFC000
0007FF8000
0007FF8000
0003FF8000
0003FF0000
0003FF0000
ENDCHAR
STARTCHAR 0057
ENCODING 87
SWIDTH 965 0
DWIDTH 59 0
BBX 57 44 1 0
BITMAP
FE00007F00003F80
FE00007F00003F80
7E0000FF00003F00
7E0000FF80007F00
7F0000FF80007F00
7F0001FF80007E00
3F0001FFC000FE00
3F8001FFC000FE00
3F8001FFC000FE00
1F8003FFC000FC00
1F8003FFE001FC00
1FC003FFE001FC00
1FC003F7E001F800
0FC007F7F003F800
0FE007E7F003F800
0FE007E3F003F000
07E00FE3F003F000
07E00FE3F807F000
07F00FC3F807F000
07F00FC1F807E000
03F01FC1F807E000
03F81F81FC0FE000
03F81F80FC0FC000
01F83F80FC0FC000
01F83F80FE1FC000
01FC3F00FE1FC000
01FC3F007E1F8000
00FC7F007E1F8000
00FC7E007F3F8000
00FE7E003F3F0000
007E7E003F3F0000
007EFE003FFF0000
007FFC003FFF0000
003FFC001FFE0000
003FFC001FFE0000
003FF8001FFE0000
003FF8000FFC0000
001FF8000FFC0000
001FF8000FFC0000
001FF00007F80000
000FF00007F80000
000FF00007F80000
000FE00007F80000
000FE00003F00000
ENDCHAR
STARTCHAR 0058
ENCODING 88
SWIDTH 638 0
DWIDTH 39 0
BBX 37 44 1 0
BITMAP
FF000007F8
7F80000FF0
3F80000FE0
3FC0001FE0
1FE0003FC0
0FE0003F80
0FF0007F80
07F800FF00
03F800FE00
03FC01FE00
01FE03FC00
00FE03F800
00FF07F800
007F8FF000
003F8FE000
003FDFE000
001FFFC000
000FFF8000
000FFF8000
0007FF0000
0003FE0000
0003FE0000
0003FE0000
0007FF0000
0007FF0000
000FFF8000
001FFFC000
001FDFC000
003FDFE000
007F8FF000
007F07F000
00FF07F800
01FE03FC00
01FC01FC00
03FC01FE00
07F800FF00
07F0007F00
0FF0007F80
1FE0003FC0
1FC0001FC0
3FC0001FE0
7F80000FF0
7F000007F0
FF000007F8
ENDCHAR
STARTCHAR 0059
ENCODING 89
SWIDTH 589 0
DWIDTH 36 0
BBX 36 44 0 0
BITMAP
FF00000FF0
7F00000FE0
7F80001FE0
3F80001FC0
1FC0003FC0
1FE0003F80
0FE0007F00
0FF000FF00
07F000FE00
07F801FE00
03FC01FC00
01FC03FC00
01FE03F800
00FE07F000
00FF0FF000
007F0FE000
007F9FE000
003FDFC000
001FFFC000
001FFF8000
000FFF0000
000FFF0000
0007FE0000
0003FE0000
0003FC0000
0001FC0000
0001F80000
0001F80000
0001F80000
0001F80000
0001F80000
0001F80000
0001F80000
0001F80000
0001F80000
0001F80000
0001F80000
0001F80000
0001F80000
0001F80000
0001F80000
0001F80000
0001F80000
0001F80000
ENDCHAR
STARTCHAR 005A
ENCODING 90
SWIDTH 654 0
DWIDTH 40 0
BBX 33 44 3 0
BITMAP
7FFFFFFF80
7FFFFFFF80
7FFFFFFF80
7FFFFFFF00
7FFFFFFE00
7FFFFFFE00
000003FC00
000003FC00
000007F800
00000FF000
00000FF000
00001FE000
00001FE000
00003FC000
00007F8000
00007F8000
0000FF0000
0000FF0000
0001FE0000
0003FC0000
0003FC0000
0007F80000
0007F00000
000FF00000
001FE00000
001FE00000
003FC00000
007F800000
007F800000
00FF000000
00FF000000
01FE000000
03FC000000
03FC000000
07F8000000
07F8000000
0FF0000000
1FE0000000
1FFFFFFF80
3FFFFFFF80
3FFFFFFF80
7FFFFFFF80
FFFFFFFF80
FFFFFFFF80
ENDCHAR
STARTCHAR 005B
ENCODING 91
SWIDTH 425 0
DWIDTH 26 0
BBX 12 68 9 -13
BITMAP
FFF0
FFF0
FFF0
FFF0
FFF0
FFF0
F800
F800
F800
F800
F800
F800
F800
F800
F800
F800
F800
F800
F800
F800
F800
F800
F800
F800
F800
F800
F800
F800
F800
F800
F800
F800
F800
F800
F800
F800
F800
F800
F800
F800
F800
F800
F800
F800
F800
F800
F800
F800
F800
F800
F800
F800
F800
F800
F800
F800
F800
F800
F800
F800
F800
F800
FFF0
FFF0
FFF0
FFF0
FFF0
FFF0
ENDCHAR
STARTCHAR 005C
ENCODING 92
SWIDTH 425 0
DWIDTH 26 0
BBX 18 44 4 0
BITMAP
FC0000
FE0000
FE0000
7E0000
7E0000
7F0000
7F0000
3F0000
3F0000
3F8000
3F8000
1F8000
1F8000
1FC000
0FC000
0FC000
0FE000
0FE000
07E000
07E000
07F000
07F000
03F000
03F000
03F800
03F800
01F800
01F800
01FC00
00FC00
00FC00
00FE00
00FE00
007E00
007E00
007F00
007F00
003F00
003F00
003F80
003F80
001F80
001F80
001FC0
ENDCHAR
STARTCHAR 005D
ENCODING 93
SWIDTH 425 0
DWIDTH 26 0
BBX 13 68 4 -13
BITMAP
FFF8
FFF8
FFF8
FFF8
FFF8
FFF8
01F8
01F8
01F8
01F8
01F8
01F8
01F8
01F8
01F8
01F8
01F8
01F8
01F8
01F8
01F8
01F8
01F8
01F8
01F8
01F8
01F8
01F8
01F8
01F8
01F8
01F8
01F8
01F8
01F8
01F8
01F8
01F8
01F8
01F8
01F8
01F8
01F8
01F8
01F8
01F8
01F8
01F8
01F8
01F8
01F8
01F8
01F8
01F8
01F8
01F8
01F8
01F8
01F8
01F8
01F8
01F8
FFF8
FFF8
FFF8
FFF8
FFF8
FFF8
ENDCHAR
STARTCHAR 005E
ENCODING 94
SWIDTH 670 0
DWIDTH 41 0
BBX 30 18 6 26
BITMAP
00030000
00078000
000FC000
001FE000
003FF000
007FF800
00FFFC00
01FFFE00
03FCFF00
07F87F80
0FF03FC0
1FE01FE0
3FC00FF0
7F8007F8
FF0003FC
7E0001F8
3C0000F0
18000060
ENDCHAR
STARTCHAR 005F
ENCODING 95
SWIDTH 654 0
DWIDTH 40 0
BBX 40 5 0 -7
BITMAP
FFFFFFFFFF
FFFFFFFFFF
FFFFFFFFFF
FFFFFFFFFF
FFFFFFFFFF
ENDCHAR
STARTCHAR 0060
ENCODING 96
SWIDTH 523 0
DWIDTH 32 0
BBX 9 11 10 49
BITMAP
F800
7C00
7C00
7C00
3E00
3E00
1F00
1F00
1F00
0F80
0F80
ENDCHAR
STARTCHAR 0061
ENCODING 97
SWIDTH 572 0
DWIDTH 35 0
BBX 29 33 2 0
BITMAP
001FF000
00FFFE00
03FFFF80
07FFFFC0
0FFFFFE0
1FFFFFF0
1FF01FF0
3FC007F0
3F8003F8
0F0003F8
000001F8
000001F8
00007FF8
001FFFF8
01FFFFF8
07FFFFF8
0FFFFFF8
1FFFE1F8
3FF801F8
7FC001F8
7F0003F8
7E0003F8
FE0003F8
FE0007F8
FE0007F8
7E000FF8
7F003FF8
7FE1FFF8
3FFFFFF8
1FFFFDF8
0FFFF1F8
07FFE1F8
00FF0000
ENDCHAR
STARTCHAR 0062
ENCODING 98
SWIDTH 605 0
DWIDTH 37 0
BBX 31 44 4 0
BITMAP
FE000000
FE000000
FE000000
FE000000
FE000000
FE000000
FE000000
FE000000
FE000000
FE000000
FE000000
FE0FF000
FE7FFC00
FFFFFF00
FFFFFF80
FFFFFFC0
FFFFFFE0
FFE03FF0
FF800FF0
FF0007F8
FF0003F8
FE0001FC
FE0001FC
FC0001FC
FC0000FC
FC0000FE
FC0000FE
FC0000FE
FC0000FE
FC0000FE
FC0000FC
FC0001FC
FE0001FC
FE0001FC
FF0003F8
FF0007F8
FF800FF8
FFE01FF0
FFFFFFE0
FFFFFFC0
FFFFFF80
FDFFFF00
FC7FFC00
FC1FF000
ENDCHAR
STARTCHAR 0063
ENCODING 99
SWIDTH 572 0
DWIDTH 35 0
BBX 31 33 2 0
BITMAP
000FF800
007FFF00
01FFFF80
03FFFFE0
07FFFFF0
0FFFFFF8
1FF81FF8
1FE007FC
3FC001FC
3F8001FE
7F8000F0
7F000000
7F000000
7E000000
7E000000
FE000000
FE000000
FE000000
7E000000
7E000000
7F000000
7F000000
7F8000E0
3F8001FE
3FC001FC
1FE003FC
1FF80FF8
0FFFFFF8
07FFFFF0
03FFFFE0
01FFFF80
007FFF00
000FF800
ENDCHAR
STARTCHAR 0064
ENCODING 100
SWIDTH 605 0
DWIDTH 37 0
BBX 31 44 2 0
BITMAP
000000FE
000000FE
000000FE
000000FE
000000FE
000000FE
000000FE
000000FE
000000FE
000000FE
000000FE
001FE0FE
007FFCFE
01FFFFFE
03FFFFFE
07FFFFFE
0FFFFFFE
1FF80FFE
1FE003FE
3FC001FE
3F8000FE
7F0000FE
7F0000FE
7F00007E
7E00007E
7E00007E
FE00007E
FE00007E
FE00007E
FE00007E
7E00007E
7F00007E
7F0000FE
7F0000FE
3F8000FE
3FC001FE
1FE003FE
1FF00FFE
0FFFFFFE
07FFFFFE
03FFFFFE
01FFFF7E
007FFC7E
000FE07E
ENDCHAR
STARTCHAR 0065
ENCODING 101
SWIDTH 589 0
DWIDTH 36 0
BBX 32 33 2 0
BITMAP
000FF800
007FFF00
01FFFFC0
03FFFFE0
07FFFFF0
0FFFFFF8
1FF007F8
1FC001FC
3F8000FC
3F8000FE
7F00007E
7F00007E
7F00007F
7FFFFFFF
7FFFFFFF
FFFFFFFF
FFFFFFFF
FFFFFFFF
7E000000
7E000000
7F000000
7F000000
7F800060
3F8000FC
3FC001FE
1FE003FE
1FF80FFC
0FFFFFF8
07FFFFF0
03FFFFE0
00FFFFC0
003FFF00
0007F800
ENDCHAR
STARTCHAR 0066
ENCODING 102
SWIDTH 376 0
DWIDTH 23 0
BBX 20 44 2 0
BITMAP
001FF0
007FF0
00FFF0
01FFF0
03FFF0
03FC00
03F800
07F000
07F000
07F000
07F000
FFFFF0
FFFFF0
FFFFF0
FFFFF0
FFFFF0
07F000
07F000
07F000
07F000
07F000
07F000
07F000
07F000
07F000
07F000
07F000
07F000
07F000
07F000
07F000
07F000
07F000
07F000
07F000
07F000
07F000
07F000
07F000
07F000
07F000
07F000
07F000
07F000
ENDCHAR
STARTCHAR 0067
ENCODING 103
SWIDTH 605 0
DWIDTH 37 0
BBX 31 48 2 -15
BITMAP
001FF07E
007FFE7E
01FFFFFE
03FFFFFE
07FFFFFE
0FFFFFFE
1FF80FFE
1FE003FE
3FC001FE
3F8000FE
7F0000FE
7F0000FE
7F00007E
7E00007E
7E00007E
FE00007E
FE00007E
FE00007E
FE00007E
7E00007E
7F00007E
7F0000FE
7F0000FE
3F8000FE
3FC001FE
1FE003FE
1FF00FFE
0FFFFFFE
07FFFFFE
03FFFFFE
01FFFFFE
007FFCFE
000FE0FE
000000FE
000000FE
000000FE
000000FE
000000FE
018001FC
07C003FC
1FE007FC
1FF81FF8
0FFFFFF8
07FFFFF0
03FFFFE0
01FFFFC0
007FFF00
000FF800
ENDCHAR
STARTCHAR 0068
ENCODING 104
SWIDTH 621 0
DWIDTH 38 0
BBX 30 44 4 0
BITMAP
FC000000
FC000000
FC000000
FC000000
FC000000
FC000000
FC000000
FC000000
FC000000
FC000000
FC000000
FC07F800
FC3FFE00
FCFFFF80
FDFFFFC0
FFFFFFE0
FFFFFFE0
FFF03FF0
FFC00FF0
FF8007F8
FF0003F8
FF0003F8
FE0001FC
FE0001FC
FE0001FC
FE0001FC
FE0001FC
FE0001FC
FE0001FC
FE0001FC
FE0001FC
FE0001FC
FE0001FC
FE0001FC
FE0001FC
FE0001FC
FE0001FC
FE0001FC
FE0001FC
FE0001FC
FE0001FC
FE0001FC
FE0001FC
FE0001FC
ENDCHAR
STARTCHAR 0069
ENCODING 105
SWIDTH 261 0
DWIDTH 16 0
BBX 6 44 5 0
BITMAP
FC
FC
FC
FC
FC
FC
00
00
00
00
00
FC
FC
FC
FC
FC
FC
FC
FC
FC
FC
FC
FC
FC
FC
FC
FC
FC
FC
FC
FC
FC
FC
FC
FC
FC
FC
FC
FC
FC
FC
FC
FC
FC
ENDCHAR
STARTCHAR 006A
ENCODING 106
SWIDTH 278 0
DWIDTH 17 0
BBX 13 59 -1 -15
BITMAP
01F8
01F8
01F8
01F8
01F8
01F8
0000
0000
0000
0000
0000
01F8
01F8
01F8
01F8
01F8
01F8
01F8
01F8
01F8
01F8
01F8
01F8
01F8
01F8
01F8
01F8
01F8
01F8
01F8
01F8
01F8
01F8
01F8
01F8
01F8
01F8
01F8
01F8
01F8
01F8
01F8
01F8
01F8
01F8
01F8
01F8
01F8
01F8
01F8
01F8
03F8
07F8
FFF8
FFF8
FFF0
FFE0
FFC0
FF00
ENDCHAR
STARTCHAR 006B
ENCODING 107
SWIDTH 523 0
DWIDTH 32 0
BBX 29 44 4 0
BITMAP
FE000000
FE000000
FE000000
FE000000
FE000000
FE000000
FE000000
FE000000
FE000000
FE000000
FE000000
FE001FE0
FE003FE0
FE003FC0
FE007F80
FE00FF00
FE01FE00
FE03FC00
FE03FC00
FE07F800
FE0FF000
FE1FE000
FE3FC000
FE3F8000
FE7F8000
FEFF0000
FFFE0000
FFFC0000
FFFE0000
FEFF0000
FE7F8000
FE3FC000
FE1FE000
FE1FF000
FE0FF800
FE07F800
FE03FC00
FE01FE00
FE00FF00
FE007F80
FE007FC0
FE003FE0
FE001FF0
FE000FF8
ENDCHAR
STARTCHAR 006C
ENCODING 108
SWIDTH 261 0
DWIDTH 16 0
BBX 6 44 5 0
BITMAP
FC
FC
FC
FC
FC
FC
FC
FC
FC
FC
FC
FC
FC
FC
FC
FC
FC
FC
FC
FC
FC
FC
FC
FC
FC
FC
FC
FC
FC
FC
FC
FC
FC
FC
FC
FC
FC
FC
FC
FC
FC
FC
FC
FC
ENDCHAR
STARTCHAR 006D
ENCODING 109
SWIDTH 883 0
DWIDTH 54 0
BBX 46 33 4 0
BITMAP
FC0FE001FE00
FC7FF807FF80
FCFFFE1FFFC0
FDFFFF3FFFF0
FFFFFF3FFFF0
FFFFFFFFFFF8
FFC07FFC07F8
FF803FF003FC
FF001FF001FC
FE001FE001FC
FE000FE001FC
FE000FE000FC
FE000FC000FC
FE000FC000FC
FE000FC000FC
FE000FC000FC
FE000FC000FC
FE000FC000FC
FE000FC000FC
FE000FC000FC
FE000FC000FC
FE000FC000FC
FE000FC000FC
FE000FC000FC
FE000FC000FC
FE000FC000FC
FE000FC000FC
FE000FC000FC
FE000FC000FC
FE000FC000FC
FE000FC000FC
FE000FC000FC
FE000FC000FC
ENDCHAR
STARTCHAR 006E
ENCODING 110
SWIDTH 621 0
DWIDTH 38 0
BBX 30 33 4 0
BITMAP
FC07F800
FC3FFE00
FCFFFF80
FDFFFFC0
FFFFFFE0
FFFFFFE0
FFF03FF0
FFC00FF0
FF8007F8
FF0003F8
FF0003F8
FE0001FC
FE0001FC
FE0001FC
FE0001FC
FE0001FC
FE0001FC
FE0001FC
FE0001FC
FE0001FC
FE0001FC
FE0001FC
FE0001FC
FE0001FC
FE0001FC
FE0001FC
FE0001FC
FE0001FC
FE0001FC
FE0001FC
FE0001FC
FE0001FC
FE0001FC
ENDCHAR
STARTCHAR 006F
ENCODING 111
SWIDTH 605 0
DWIDTH 37 0
BBX 33 33 2 0
BITMAP
000FF80000
007FFF0000
01FFFFC000
03FFFFE000
07FFFFF000
0FFFFFF800
1FF80FFC00
1FE003FC00
3FC001FE00
3F8000FE00
7F00007F00
7F00007F00
7F00007F00
7E00003F80
7E00003F80
FE00003F80
FE00003F80
FE00003F80
7E00003F80
7E00003F80
7F00007F00
7F00007F00
7F00007F00
3F8000FE00
3FC001FE00
1FE003FC00
1FF80FFC00
0FFFFFF800
07FFFFF000
03FFFFE000
00FFFFC000
007FFF0000
000FF80000
ENDCHAR
STARTCHAR 0070
ENCODING 112
SWIDTH 605 0
DWIDTH 37 0
BBX 31 47 4 -14
BITMAP
FC0FF000
FC7FFC00
FDFFFF00
FFFFFF80
FFFFFFC0
FFFFFFE0
FFE03FF0
FF800FF0
FF0007F8
FF0003F8
FE0001FC
FE0001FC
FC0001FC
FC0000FC
FC0000FE
FC0000FE
FC0000FE
FC0000FE
FC0000FE
FC0000FC
FC0001FC
FE0001FC
FE0001FC
FF0003F8
FF0007F8
FF800FF8
FFE01FF0
FFFFFFE0
FFFFFFC0
FFFFFF80
FEFFFF00
FE7FFC00
FE0FF000
FE000000
FE000000
FE000000
FE000000
FE000000
FE000000
FE000000
FE000000
FE000000
FE000000
FE000000
FE000000
FE000000
FE000000
ENDCHAR
STARTCHAR 0071
ENCODING 113
SWIDTH 605 0
DWIDTH 37 0
BBX 31 47 2 -14
BITMAP
001FF07E
007FFE7E
01FFFFFE
03FFFFFE
07FFFFFE
0FFFFFFE
1FF80FFE
1FE003FE
3FC001FE
3F8000FE
7F0000FE
7F0000FE
7F00007E
7E00007E
7E00007E
FE00007E
FE00007E
FE00007E
FE00007E
7E00007E
7F00007E
7F0000FE
7F0000FE
3F8000FE
3FC001FE
1FE003FE
1FF00FFE
0FFFFFFE
07FFFFFE
03FFFFFE
01FFFFFE
007FFCFE
000FE0FE
000000FE
000000FE
000000FE
000000FE
000000FE
000000FE
000000FE
000000FE
000000FE
000000FE
000000FE
000000FE
000000FE
000000FE
ENDCHAR
STARTCHAR 0072
ENCODING 114
SWIDTH 392 0
DWIDTH 24 0
BBX 18 33 4 0
BITMAP
FC0FC0
FC3FC0
FCFFC0
FDFFC0
FDFFC0
FFFFC0
FFF000
FFC000
FF8000
FF0000
FF0000
FF0000
FE0000
FE0000
FE0000
FE0000
FE0000
FE0000
FE0000
FE0000
FE0000
FE0000
FE0000
FE0000
FE0000
FE0000
FE0000
FE0000
FE0000
FE0000
FE0000
FE0000
FE0000
ENDCHAR
STARTCHAR 0073
ENCODING 115
SWIDTH 540 0
DWIDTH 33 0
BBX 28 33 2 0
BITMAP
003FE000
01FFFC00
07FFFF00
0FFFFF80
1FFFFFC0
3FFFFFE0
3FC03FE0
3F800FF0
3F0007F0
7F0007F0
3F000000
3F800000
3FF00000
1FFE0000
1FFFE000
07FFFC00
01FFFF00
003FFFC0
0003FFE0
00007FF0
00000FF0
000007F0
060003F0
FE0003F0
7F0007F0
7F8007F0
3FE00FF0
3FFFFFE0
1FFFFFE0
0FFFFFC0
07FFFF00
01FFFE00
003FF000
ENDCHAR
STARTCHAR 0074
ENCODING 116
SWIDTH 425 0
DWIDTH 26 0
BBX 22 42 1 -1
BITMAP
03F000
03F000
03F000
03F000
03F000
03F000
03F000
03F000
03F000
FFFFFC
FFFFFC
FFFFFC
FFFFFC
FFFFFC
03F000
03F000
03F000
03F000
03F000
03F000
03F000
03F000
03F000
03F000
03F000
03F000
03F000
03F000
03F000
03F000
03F000
03F000
03F000
03F800
03F800
03FC00
01FFFC
01FFFC
00FFFC
007FFC
003FFC
0007FC
ENDCHAR
STARTCHAR 0075
ENCODING 117
SWIDTH 621 0
DWIDTH 38 0
BBX 29 33 4 0
BITMAP
FC0001F8
FC0001F8
FC0001F8
FC0001F8
FC0001F8
FC0001F8
FC0001F8
FC0001F8
FC0001F8
FC0001F8
FC0001F8
FC0001F8
FC0001F8
FC0001F8
FC0001F8
FC0001F8
FC0001F8
FC0001F8
FC0001F8
FC0001F8
FE0003F8
FE0003F8
FE0003F8
FF0007F8
7F8007F8
7FC01FF8
7FF07FF8
3FFFFFF8
1FFFFEF8
0FFFFCF8
07FFF8F8
03FFF0F8
007F80F8
ENDCHAR
STARTCHAR 0076
ENCODING 118
SWIDTH 540 0
DWIDTH 33 0
BBX 30 33 1 0
BITMAP
FE0000FC
7E0000FC
7F0001FC
7F0001F8
3F0001F8
3F8003F8
1F8003F0
1F8003F0
1FC007F0
0FC007E0
0FC00FE0
0FE00FC0
07E00FC0
07E01FC0
07F01F80
03F01F80
03F03F80
01F83F00
01F83F00
01FC7F00
00FC7E00
00FC7E00
00FEFC00
007EFC00
007EFC00
007FF800
003FF800
003FF800
001FF000
001FF000
001FF000
000FE000
000FE000
ENDCHAR
STARTCHAR 0077
ENCODING 119
SWIDTH 785 0
DWIDTH 48 0
BBX 46 33 1 0
BITMAP
FE000FC000FC
7E000FC001FC
7E000FE001F8
7F001FE001F8
3F001FE003F8
3F001FF003F0
3F803FF003F0
3F803FF007F0
1F803FF807E0
1F807FF807E0
1FC07EF807E0
0FC07CF80FE0
0FC07CFC0FC0
0FE0FC7C0FC0
07E0F87C1FC0
07E0F87E1F80
07F1F83E1F80
03F1F03E3F80
03F1F03F3F00
03F3F03F3F00
03FBE01F3F00
01FBE01FFF00
01FFE01FFE00
01FFC00FFE00
00FFC00FFE00
00FFC00FFC00
00FFC007FC00
007F8007FC00
007F8007F800
007F8003F800
003F0003F800
003F0003F000
003F0001F000
ENDCHAR
STARTCHAR 0078
ENCODING 120
SWIDTH 540 0
DWIDTH 33 0
BBX 31 33 1 0
BITMAP
FF0001FE
7F8001FC
3F8003FC
3FC007F8
1FE007F0
0FE00FE0
07F01FE0
07F83FC0
03FC3F80
01FC7F00
00FEFF00
00FFFE00
007FFC00
003FF800
001FF800
001FF000
000FE000
001FF000
003FF800
003FFC00
007FFC00
00FFFE00
01FE7F00
01FC7F80
03F83F80
07F81FC0
0FF01FE0
0FE00FF0
1FC007F0
3FC003F8
7F8003FC
7F0001FE
FF0000FE
ENDCHAR
STARTCHAR 0079
ENCODING 121
SWIDTH 556 0
DWIDTH 34 0
BBX 32 48 1 -15
BITMAP
FE00007F
FE00007E
7E00007E
7F0000FE
3F0000FC
3F8001FC
3F8001FC
1F8001F8
1FC003F8
0FC003F0
0FE003F0
0FE007F0
07E007E0
07F00FE0
03F00FC0
03F80FC0
01F81FC0
01F81F80
01FC1F80
00FC3F80
00FE3F00
007E7F00
007E7E00
007F7E00
003FFE00
003FFC00
001FFC00
001FFC00
001FF800
000FF800
000FF000
0007F000
0007F000
0007E000
0007E000
000FC000
000FC000
001FC000
001F8000
001F8000
003F8000
003F0000
003F0000
007E0000
007E0000
007E0000
00FC0000
00FC0000
ENDCHAR
STARTCHAR 007A
ENCODING 122
SWIDTH 540 0
DWIDTH 33 0
BBX 29 33 1 0
BITMAP
3FFFFFF8
3FFFFFF8
3FFFFFF0
3FFFFFE0
3FFFFFE0
3FFFFFC0
00003F80
00003F00
00007F00
0000FE00
0000FC00
0001FC00
0003F800
0007F000
0007F000
000FE000
001FC000
001F8000
003F8000
007F0000
00FE0000
00FE0000
01FC0000
03F80000
03F00000
07F00000
0FE00000
1FFFFFF0
1FFFFFF0
3FFFFFF0
7FFFFFF0
7FFFFFF0
FFFFFFF0
ENDCHAR
STARTCHAR 007B
ENCODING 123
SWIDTH 441 0
DWIDTH 27 0
BBX 15 68 9 -13
BITMAP
00FE
03FE
07FE
0FFE
0FFE
1FFE
1FC0
1F80
1F80
1F80
1F80
1F80
1F80
1F80
1F80
1F80
1F80
1F80
1F80
1F80
1F80
1F80
1F80
1F80
1F80
1F80
1F80
1F80
1F80
3F80
7F80
7F00
FE00
FE00
FE00
FE00
7F00
7F00
3F80
1F80
1F80
1F80
1F80
1F80
1F80
1F80
1F80
1F80
1F80
1F80
1F80
1F80
1F80
1F80
1F80
1F80
1F80
1F80
1F80
1F80
1F80
1FC0
1FFE
0FFE
0FFE
07FE
03FE
00FE
ENDCHAR
STARTCHAR 007C
ENCODING 124
SWIDTH 278 0
DWIDTH 17 0
BBX 7 44 5 0
BITMAP
FE
FE
FE
FE
FE
FE
FE
FE
FE
FE
FE
FE
FE
FE
FE
FE
FE
FE
FE
FE
FE
FE
FE
FE
FE
FE
FE
FE
FE
FE
FE
FE
FE
FE
FE
FE
FE
FE
FE
FE
FE
FE
FE
FE
ENDCHAR
STARTCHAR 007D
ENCODING 125
SWIDTH 441 0
DWIDTH 27 0
BBX 15 68 3 -13
BITMAP
FE00
FF80
FFC0
FFC0
FFE0
FFE0
0FF0
07F0
03F0
03F0
03F0
03F0
03F0
03F0
03F0
03F0
03F0
03F0
03F0
03F0
03F0
03F0
03F0
03F0
03F0
03F0
03F0
03F0
03F0
03F8
03F8
01FC
01FE
00FE
00FE
00FE
01FC
03FC
03F8
03F0
03F0
03F0
03F0
03F0
03F0
03F0
03F0
03F0
03F0
03F0
03F0
03F0
03F0
03F0
03F0
03F0
03F0
03F0
03F0
03F0
07F0
07F0
FFE0
FFE0
FFC0
FFC0
FF80
FE00
ENDCHAR
STARTCHAR 007E
ENCODING 126
SWIDTH 703 0
DWIDTH 43 0
BBX 29 13 7 13
BITMAP
07800000
1FF00000
3FFC01F8
7FFE01F8
FFFF81F8
FFFFC3F8
FFFFFFF8
FE3FFFF8
FC1FFFF0
FC07FFF0
FC01FFE0
FC00FFC0
00003F00
ENDCHAR
STARTCHAR 00A0
ENCODING 160
SWIDTH 196 0
DWIDTH 12 0
BBX 0 0 0 0
BITMAP
ENDCHAR
STARTCHAR 00A1
ENCODING 161
SWIDTH 343 0
DWIDTH 21 0
BBX 7 44 7 -11
BITMAP
FE
FE
FE
FE
FE
FE
00
00
00
00
00
FE
FE
FE
FE
FE
FE
FE
FE
FE
FE
FE
FE
FE
FE
FE
FE
FE
FE
FE
FE
FE
FE
FE
FE
FE
FE
FE
FE
FE
FE
FE
FE
FE
ENDCHAR
STARTCHAR 00A2
ENCODING 162
SWIDTH 572 0
DWIDTH 35 0
BBX 31 46 2 -2
BITMAP
0003E000
0003E000
0003E000
0003E000
0003E000
0003E000
003FFC00
00FFFF00
01FFFFC0
03FFFFE0
07FFFFF0
0FFFFFF8
1FF00FFC
1FE003FC
3FC001FC
3F8000FE
7F0000F0
7F000000
7F000000
7F000000
7E000000
FE000000
FE000000
FE000000
FE000000
7E000000
7F000000
7F000000
7F000000
7F8000E0
3F8001FE
3FC001FC
1FE003FC
1FF00FF8
0FFFFFF8
07FFFFF0
03FFFFE0
01FFFFC0
007FFF00
001FFC00
0003E000
0003E000
0003E000
0003E000
0003E000
0003E000
ENDCHAR
STARTCHAR 00A3
ENCODING 163
SWIDTH 572 0
DWIDTH 35 0
BBX 31 44 2 0
BITMAP
0001FC00
000FFF00
001FFF80
003FFFC0
007FFFE0
00FFFFF0
01FF0FF8
01FE03F8
01FC01FC
03F800FC
03F800FE
03F800F0
03F80000
03F80000
03F80000
03F80000
03F80000
03F80000
03F80000
FFFFFE00
FFFFFE00
FFFFFE00
FFFFFE00
FFFFFE00
FFFFFE00
03F80000
03F80000
03F80000
03F80000
03F80000
03F80000
03F80000
03F80000
03F80000
03F80000
03F80000
07F80000
0FF80000
FFFFFFF0
FFFFFFF0
FFFFFFF0
FFFFFFF0
FFFFFFF0
FFFFFFF0
ENDCHAR
STARTCHAR 00A4
ENCODING 164
SWIDTH 654 0
DWIDTH 40 0
BBX 36 36 2 4
BITMAP
1800000180
3C000003C0
7E03FC07E0
FF1FFF8FF0
FFBFFFFFF0
7FFFFFFFE0
3FFFFFFFC0
1FFFFFFF80
0FFC03FF00
07F000FF00
0FE0007F00
0FC0003F80
1F80001F80
1F80000FC0
1F00000FC0
3F00000FC0
3F000007C0
3F000007C0
3F000007C0
3F000007C0
3F00000FC0
1F00000FC0
1F80000FC0
1F80001F80
0FC0003F80
0FE0007F00
07F000FF00
0FFC01FF00
1FFFFFFF80
3FFFFFFFC0
7FFFFFFFE0
FFBFFFFFF0
FF1FFF8FF0
7E03FC07E0
3C000003C0
1800000180
ENDCHAR
STARTCHAR 00A5
ENCODING 165
SWIDTH 589 0
DWIDTH 36 0
BBX 36 44 0 0
BITMAP
FF00000FF0
7F00000FE0
7F80001FE0
3F80001FC0
1FC0003FC0
1FE0003F80
0FE0007F00
0FF000FF00
07F000FE00
07F801FE00
03FC01FC00
01FC03FC00
01FE03F800
00FE07F000
00FF0FF000
007F0FE000
007F9FE000
003FDFC000
001FFFC000
001FFF8000
000FFF0000
000FFF0000
0007FE0000
03FFFFFC00
03FFFFFC00
03FFFFFC00
03FFFFFC00
03FFFFFC00
0001F80000
0001F80000
0001F80000
0001F80000
0001F80000
03FFFFFC00
03FFFFFC00
03FFFFFC00
03FFFFFC00
03FFFFFC00
0001F80000
0001F80000
0001F80000
0001F80000
0001F80000
0001F80000
ENDCHAR
STARTCHAR 00A6
ENCODING 166
SWIDTH 278 0
DWIDTH 17 0
BBX 7 55 5 -11
BITMAP
FE
FE
FE
FE
FE
FE
FE
FE
FE
FE
FE
FE
FE
FE
FE
FE
FE
FE
FE
FE
FE
FE
FE
FE
00
00
00
00
00
00
00
FE
FE
FE
FE
FE
FE
FE
FE
FE
FE
FE
FE
FE
FE
FE
FE
FE
FE
FE
FE
FE
FE
FE
FE
ENDCHAR
STARTCHAR 00A7
ENCODING 167
SWIDTH 540 0
DWIDTH 33 0
BBX 27 50 3 -9
BITMAP
00080000
01FFC000
07FFF000
0FFFFC00
1FFFFE00
3FFFFF00
7FC1FF00
7F007F80
7E003F80
7E003F80
7E001F00
7F000000
7F800000
7FE00000
3FFC0000
3FFFC000
0FFFF800
07FFFE00
0FFFFF80
1FFFFFC0
3F83FFC0
7F003FE0
FE000FE0
FC000FE0
FC0007E0
FC0007E0
FE0007E0
FF000FE0
7FE00FE0
7FFE3FC0
3FFFFF80
1FFFFF00
07FFFE00
00FFFF00
001FFF80
0001FFC0
00003FC0
00001FC0
00000FE0
3E000FE0
FE000FE0
7F000FC0
7F801FC0
7FC03FC0
3FFFFF80
1FFFFF80
0FFFFF00
07FFFE00
01FFF800
003FC000
ENDCHAR
STARTCHAR 00A8
ENCODING 168
SWIDTH 540 0
DWIDTH 33 0
BBX 19 6 7 50
BITMAP
FC07E0
FC07E0
FC07E0
FC07E0
FC07E0
FC07E0
ENDCHAR
STARTCHAR 00A9
ENCODING 169
SWIDTH 850 0
DWIDTH 52 0
BBX 49 49 2 -3
BITMAP
00001FF8000000
0000FFFF800000
0007FFFFE00000
000FFFFFF80000
003FFFFFFC0000
007FFFFFFF0000
00FFF00FFF8000
01FF8001FFC000
03FE00007FE000
07FC00001FF000
0FF000000FF000
1FE003E007F800
1FC01FFC03F800
3F807FFF01FC00
3F80FFFF80FE00
7F01FFFFC0FE00
7F01FC1FC07E00
7E03F80FE07F00
7E03F007E03F00
FE07E003C03F00
FC07E000003F00
FC07C000003F00
FC07C000003F80
FC07C000003F80
FC07C000001F80
FC07C000003F80
FC07C000003F80
FC07C000003F00
FC07E000003F00
FE07E003803F00
FE03F003E03F00
7E03F007E07F00
7F01FC1FC07E00
7F01FFFFC0FE00
3F80FFFF80FE00
3F807FFF01FC00
1FC01FFC03FC00
1FE003E007F800
0FF000000FF000
07F800001FF000
03FE00007FE000
01FF8001FFC000
00FFF00FFF8000
007FFFFFFF0000
003FFFFFFC0000
001FFFFFF80000
0007FFFFE00000
0000FFFF800000
00001FF8000000
ENDCHAR
STARTCHAR 00AA
ENCODING 170
SWIDTH 310 0
DWIDTH 19 0
BBX 15 17 2 17
BITMAP
07E0
1FF8
3FFC
7E7E
781E
001E
007E
0FFE
3FFE
7F9E
781E
F01E
F01E
703E
7FFE
3FEE
1FCE
ENDCHAR
STARTCHAR 00AB
ENCODING 171
SWIDTH 572 0
DWIDTH 35 0
BBX 26 27 5 3
BITMAP
00200200
00700700
007C0FC0
00F80F80
01F81F80
03F03F00
07E07E00
07C0FC00
0FC0F800
1F81F800
3F03F000
7E07E000
7C0FC000
FC0F8000
7C07C000
7E07E000
3F03F000
1F81F800
0FC0F800
07C0FC00
07E07E00
03F03F00
01F81F80
00FC0F80
007C0F80
00700700
00200200
ENDCHAR
STARTCHAR 00AC
ENCODING 172
SWIDTH 605 0
DWIDTH 37 0
BBX 29 12 4 12
BITMAP
FFFFFFF8
FFFFFFF8
FFFFFFF8
FFFFFFF8
FFFFFFF8
000000F8
000000F8
000000F8
000000F8
000000F8
000000F8
000000F8
ENDCHAR
STARTCHAR 00AD
ENCODING 173
SWIDTH 425 0
DWIDTH 26 0
BBX 18 5 4 17
BITMAP
FFFFC0
FFFFC0
FFFFC0
FFFFC0
FFFFC0
ENDCHAR
STARTCHAR 00AE
ENCODING 174
SWIDTH 638 0
DWIDTH 39 0
BBX 31 31 4 17
BITMAP
000FF000
007FFC00
01FFFF00
03FFFF80
07FE7FC0
0FE00FE0
1F8003F0
1F0001F8
3E0000F8
3E1FF07C
7C1FF87C
7C18383E
78181C3E
F8181C3E
F8181C1E
F818781E
F81FF01E
F81FE01E
F818703E
7818703E
7C18383C
7C18387C
3E181CFC
3F0001F8
1F8003F0
0FE00FF0
07FEFFE0
03FFFFC0
01FFFF00
007FFC00
000FF000
ENDCHAR
STARTCHAR 00AF
ENCODING 175
SWIDTH 507 0
DWIDTH 31 0
BBX 16 5 7 51
BITMAP
FFFF
FFFF
FFFF
FFFF
FFFF
ENDCHAR
STARTCHAR 00B0
ENCODING 176
SWIDTH 458 0
DWIDTH 28 0
BBX 22 21 2 22
BITMAP
00FC00
07FF00
0FFFC0
1FFFE0
3FFFF0
7FFFF0
7F03F8
FE01F8
FC00FC
FC00FC
F800FC
F800FC
FC00FC
FC01F8
FE01F8
7F87F8
3FFFF0
3FFFE0
1FFFC0
0FFF80
03FE00
ENDCHAR
STARTCHAR 00B1
ENCODING 177
SWIDTH 605 0
DWIDTH 37 0
BBX 29 29 4 4
BITMAP
000F8000
000F8000
000F8000
000F8000
000F8000
000F8000
000F8000
FFFFFFF8
FFFFFFF8
FFFFFFF8
FFFFFFF8
FFFFFFF8
000F8000
000F8000
000F8000
000F8000
000F8000
000F8000
000F8000
000F8000
00000000
00000000
00000000
00000000
FFFFFFF8
FFFFFFF8
FFFFFFF8
FFFFFFF8
FFFFFFF8
ENDCHAR
STARTCHAR 00B2
ENCODING 178
SWIDTH 409 0
DWIDTH 25 0
BBX 19 28 3 16
BITMAP
03F800
0FFE00
1FFF00
3FFF80
7F0FC0
7C07C0
F803E0
F803E0
F803E0
0003E0
0003E0
0003E0
0007C0
000FC0
001F80
003F00
007E00
00FC00
03F800
07F000
0FE000
1F8000
3F0000
7E0000
FFFFE0
FFFFE0
FFFFE0
FFFFE0
ENDCHAR
STARTCHAR 00B3
ENCODING 179
SWIDTH 392 0
DWIDTH 24 0
BBX 18 28 3 16
BITMAP
7FFF80
7FFF80
7FFF80
7FFF80
000F80
001F00
007E00
00FC00
01F800
03F000
07E000
0FF800
0FFC00
07FF00
037F00
000F80
000780
0007C0
0007C0
0007C0
0007C0
F00780
F80F80
FC1F80
7FFF00
3FFE00
1FFC00
07F000
ENDCHAR
STARTCHAR 00B4
ENCODING 180
SWIDTH 523 0
DWIDTH 32 0
BBX 9 11 13 49
BITMAP
0F80
1F00
1F00
3E00
3E00
3E00
7C00
7C00
F800
F800
F800
ENDCHAR
STARTCHAR 00B5
ENCODING 181
SWIDTH 621 0
DWIDTH 38 0
BBX 30 47 4 -14
BITMAP
FE0001FC
FE0001FC
FE0001FC
FE0001FC
FE0001FC
FE0001FC
FE0001FC
FE0001FC
FE0001FC
FE0001FC
FE0001FC
FE0001FC
FE0001FC
FE0001FC
FE0001FC
FE0001FC
FE0001FC
FE0001FC
FE0001FC
FE0001FC
FE0001FC
FF0001FC
FF0003FC
FF0003FC
FF8007FC
FFC00FFC
FFF03FFC
FFFFFFFC
FFFFFFFC
FFFFFEFC
FFFFFCFC
FDFFF0FC
FC3FC0FC
FC000000
FC000000
FC000000
FC000000
FC000000
FC000000
FC000000
FC000000
FC000000
FC000000
FC000000
FC000000
FC000000
FC000000
ENDCHAR
STARTCHAR 00B6
ENCODING 182
SWIDTH 687 0
DWIDTH 42 0
BBX 36 53 3 -9
BITMAP
003FFF07F0
01FFFF07F0
03FFFF07F0
0FFFFF07F0
0FFFFF07F0
1FFFFF07F0
3FFFFF07F0
3FFFFF07F0
7FFFFF07F0
7FFFFF07F0
7FFFFF07F0
7FFFFF07F0
FFFFFF07F0
FFFFFF07F0
FFFFFF07F0
FFFFFF07F0
7FFFFF07F0
7FFFFF07F0
7FFFFF07F0
7FFFFF07F0
3FFFFF07F0
3FFFFF07F0
1FFFFF07F0
1FFFFF07F0
0FFFFF07F0
07FFFF07F0
01FFFF07F0
003FFF07F0
00003F07F0
00003F07F0
00003F07F0
00003F07F0
00003F07F0
00003F07F0
00003F07F0
00003F07F0
00003F07F0
00003F07F0
00003F07F0
00003F07F0
00003F07F0
00003F07F0
00003F07F0
00003F07F0
00003F07F0
00003F07F0
00003F07F0
00003F07F0
00003F07F0
00003F07F0
00003F07F0
00003F07F0
00003F07F0
ENDCHAR
STARTCHAR 00B7
ENCODING 183
SWIDTH 245 0
DWIDTH 15 0
BBX 8 8 4 15
BITMAP
3C
FE
FF
FF
FF
FF
7E
3C
ENDCHAR
STARTCHAR 00B8
ENCODING 184
SWIDTH 409 0
DWIDTH 25 0
BBX 11 16 7 -15
BITMAP
0F00
0F00
1E00
1E00
1F00
3F80
1FC0
07C0
03E0
03E0
07E0
7FC0
7FC0
7F80
FF00
0800
ENDCHAR
STARTCHAR 00B9
ENCODING 185
SWIDTH 343 0
DWIDTH 21 0
BBX 9 28 4 16
BITMAP
0F80
3F80
7F80
FF80
FF80
F780
C780
0780
0780
0780
0780
0780
0780
0780
0780
0780
0780
0780
0780
0780
0780
0780
0780
0780
0780
0780
0780
0780
ENDCHAR
STARTCHAR 00BA
ENCODING 186
SWIDTH 343 0
DWIDTH 21 0
BBX 17 17 2 16
BITMAP
03F000
0FFC00
1FFE00
3F7E00
7C0F00
780F00
780780
F00780
F00780
F00780
780780
780F00
7C0F00
3F7E00
1FFE00
0FFC00
03F000
ENDCHAR
STARTCHAR 00BB
ENCODING 187
SWIDTH 572 0
DWIDTH 35 0
BBX 26 27 4 3
BITMAP
10010000
38070000
F80F8000
FC0FC000
7E07E000
3F03F000
1F81F000
0F81F800
0FC0FC00
07E07E00
03F03F00
01F81F00
00F81F80
00FC0FC0
00F81F80
01F01F00
03F03E00
07E07E00
0FC0FC00
0F81F800
1F01F000
3F03F000
7E07E000
FC0FC000
F80F8000
38070000
10010000
ENDCHAR
STARTCHAR 00BC
ENCODING 188
SWIDTH 1014 0
DWIDTH 62 0
BBX 51 44 4 0
BITMAP
0F800000040000
3F8000000E0000
7F8000000F8000
FF8000001F8000
FF8000003F0000
E78000007E0000
C78000007E0000
07800000FC0000
07800001F80000
07800003F00000
07800003F00000
07800007E00000
0780000FC00000
0780001F800000
0780003F800000
0780003F000000
0780007E000000
078000FC00F800
078001FC01F000
078001F801F000
078003F003E000
078007E003E000
078007E007C000
07800FC007C000
07801F800F8000
07803F000F8000
07807F001F0000
00007E001F0000
0000FC003E0F00
0001F8003E0F00
0003F8003C0F00
0003F0007C0F00
0007E000780F00
000FC000F80F00
001FC000F00F00
001F8001FFFFE0
003F0001FFFFE0
007E0001FFFFE0
00FE0001FFFFE0
00FC0000000F00
01F80000000F00
01F00000000F00
00700000000F00
00200000000F00
ENDCHAR
STARTCHAR 00BD
ENCODING 189
SWIDTH 981 0
DWIDTH 60 0
BBX 53 44 4 0
BITMAP
0F800000040000
3F8000000E0000
7F8000000F8000
FF8000001F8000
FF8000003F0000
F78000007E0000
C78000007E0000
07800000FC0000
07800001F80000
07800003F00000
07800003F00000
07800007E00000
0780000FC00000
0780001F800000
0780001F800000
0780003F000000
0780007E007E00
078000FC03FF80
078000FC07FFE0
078001F80FFFF0
078003F00FC3F0
078007E01F00F8
078007E01F00F8
07800FC01E0078
07801F801E0078
07803F00000078
07803F00000078
07807E000000F8
0000FC000001F8
0001F8000003F0
0001F8000007E0
0003F000000FE0
0007E000001F80
000FC000003F00
000FC000007E00
001F800000FC00
003F000001F800
007E000007F000
007E00000FE000
00FC00001FC000
01F800003FFFF8
01F000003FFFF8
007000003FFFF8
002000003FFFF8
ENDCHAR
STARTCHAR 00BE
ENCODING 190
SWIDTH 1014 0
DWIDTH 62 0
BBX 55 44 3 0
BITMAP
7FFF8000002000
7FFF8000007000
7FFF800000F800
7FFF800000FC00
000F800001F800
001F000003F000
007E000007F000
00FC000007E000
01F800000FC000
03F000001F8000
07E000003F8000
0FF800003F0000
0FFC00007E0000
07FF0000FC0000
037F0001FC0000
000F8001F80000
00078003F00000
0007C007E00F80
0007C00FE00F80
0007C00FC01F00
0007C01F801F00
F007803F003E00
F80F807F003E00
FC1F807E007C00
7FFF00FC007C00
3FFE01F800F800
1FFC03F800F800
07F003F001F000
000007E001F0F0
00000FC003E0F0
00001FC003E0F0
00001F8003C0F0
00003F0007C0F0
00007E000780F0
0000FE000F80F0
0000FC000FFFFE
0001F8000FFFFE
0003F0000FFFFE
0007F0000FFFFE
0007E0000000F0
000FC0000000F0
000F80000000F0
000780000000F0
000100000000F0
ENDCHAR
STARTCHAR 00BF
ENCODING 191
SWIDTH 540 0
DWIDTH 33 0
BBX 27 45 3 -12
BITMAP
001FC000
001FC000
001FC000
001FC000
001FC000
001FC000
001FC000
00000000
00000000
00000000
00000000
00000000
001FC000
001FC000
001FC000
001F8000
003F8000
003F8000
007F8000
00FF0000
01FF0000
03FE0000
07FC0000
0FF80000
1FF00000
3FE00000
3F800000
7F800000
7F000000
FE000000
FE000000
FE000000
FE000000
FE000FE0
FE000FE0
FE000FE0
7F001FC0
7F803FC0
7FE0FF80
3FFFFF80
1FFFFF00
0FFFFE00
07FFFC00
03FFF000
007FC000
ENDCHAR
STARTCHAR 00C0
ENCODING 192
SWIDTH 654 0
DWIDTH 40 0
BBX 38 60 1 0
BITMAP
000F800000
000F800000
000F800000
0007C00000
0007C00000
0003E00000
0003E00000
0003F00000
0001F00000
0001F00000
0000F80000
0000000000
0000000000
0000000000
0000000000
0000000000
0003FF0000
0003FF0000
0003FF8000
0007FF8000
0007FF8000
0007FFC000
000FFFC000
000FEFC000
000FCFC000
001FCFE000
001FC7E000
001FC7E000
003F87F000
003F87F000
003F83F000
007F03F800
007F03F800
007F01F800
00FE01FC00
00FE01FC00
00FE00FC00
00FC00FE00
01FC00FE00
01FC007E00
01F8007F00
03F8007F00
03F8003F00
03F0003F80
07FFFFFF80
07FFFFFF80
07FFFFFFC0
0FFFFFFFC0
0FFFFFFFC0
0FFFFFFFE0
1FC0000FE0
1FC00007E0
1F800007F0
3F800007F0
3F800003F0
3F000003F8
7F000003F8
7F000001F8
7E000001FC
FE000001FC
ENDCHAR
STARTCHAR 00C1
ENCODING 193
SWIDTH 654 0
DWIDTH 40 0
BBX 38 60 1 0
BITMAP
000003E000
000007C000
000007C000
00000F8000
00000F8000
00000F8000
00001F0000
00001F0000
00003E0000
00003E0000
00003E0000
0000000000
0000000000
0000000000
0000000000
0000000000
0003FF0000
0003FF0000
0003FF8000
0007FF8000
0007FF8000
0007FFC000
000FFFC000
000FFFC000
000FCFC000
001FCFE000
001FCFE000
001F87E000
003F87F000
003F87F000
003F03F000
007F03F800
007F03F800
007E01F800
00FE01FC00
00FE01FC00
00FC00FC00
00FC00FE00
01FC00FE00
01F8007E00
01F8007F00
03F8007F00
03F0003F00
03F0003F80
07FFFFFF80
07FFFFFF80
07FFFFFFC0
0FFFFFFFC0
0FFFFFFFC0
0FFFFFFFE0
1FC0000FE0
1FC00007E0
1F800007F0
3F800007F0
3F800003F0
3F000003F8
7F000003F8
7F000001F8
7E000001FC
FE000001FC
ENDCHAR
STARTCHAR 00C2
ENCODING 194
SWIDTH 654 0
DWIDTH 40 0
BBX 38 58 1 0
BITMAP
0000FC0000
0001FE0000
0003FF0000
0007FF8000
000FCFC000
000FCFE000
001F87E000
003F03F000
007E01F800
0000000000
0000000000
0000000000
0000000000
0000000000
0003FF0000
0003FF0000
0003FF8000
0007FF8000
0007FF8000
0007FFC000
000FFFC000
000FFFC000
000FCFC000
001FCFE000
001FCFE000
001F87E000
003F87F000
003F87F000
003F03F000
007F03F800
007F03F800
007E01F800
00FE01FC00
00FE01FC00
00FC00FC00
00FC00FE00
01FC00FE00
01F8007E00
01F8007F00
03F8007F00
03F0003F00
03F0003F80
07FFFFFF80
07FFFFFF80
07FFFFFFC0
0FFFFFFFC0
0FFFFFFFC0
0FFFFFFFE0
1FC0000FE0
1FC00007E0
1F800007F0
3F800007F0
3F800003F0
3F000003F8
7F000003F8
7F000001F8
7E000001FC
FE000001FC
ENDCHAR
STARTCHAR 00C3
ENCODING 195
SWIDTH 654 0
DWIDTH 40 0
BBX 38 59 1 0
BITMAP
000F800000
003FC07800
003FF07800
007FFC7800
007FFFF800
00787FF800
00783FF800
00780FF000
000003C000
0000000000
0000000000
0000000000
0000000000
0000000000
0000000000
0003FF0000
0003FF0000
0003FF8000
0007FF8000
0007FF8000
0007FFC000
000FFFC000
000FFFC000
000FCFC000
001FCFE000
001FCFE000
001F87E000
003F87F000
003F87F000
003F03F000
007F03F800
007F03F800
007E01F800
00FE01FC00
00FE01FC00
00FC00FC00
00FC00FE00
01FC00FE00
01F8007E00
01F8007F00
03F8007F00
03F0003F00
03F0003F80
07FFFFFF80
07FFFFFF80
07FFFFFFC0
0FFFFFFFC0
0FFFFFFFC0
0FFFFFFFE0
1FC0000FE0
1FC00007E0
1F800007F0
3F800007F0
3F800003F0
3F000003F8
7F000003F8
7F000001F8
7E000001FC
FE000001FC
ENDCHAR
STARTCHAR 00C4
ENCODING 196
SWIDTH 654 0
DWIDTH 40 0
BBX 38 56 1 0
BITMAP
003F03F000
003F03F000
003F03F000
003F03F000
003F03F000
003F03F000
0000000000
0000000000
0000000000
0000000000
0000000000
0000000000
0003FF0000
0003FF0000
0003FF8000
0007FF8000
0007FF8000
0007FFC000
000FFFC000
000FFFC000
000FCFC000
001FCFE000
001FCFE000
001F87E000
003F87F000
003F87F000
003F03F000
007F03F800
007F03F800
007E01F800
00FE01FC00
00FE01FC00
00FC00FC00
00FC00FE00
01FC00FE00
01F8007E00
01F8007F00
03F8007F00
03F0003F00
03F0003F80
07FFFFFF80
07FFFFFF80
07FFFFFFC0
0FFFFFFFC0
0FFFFFFFC0
0FFFFFFFE0
1FC0000FE0
1FC00007E0
1F800007F0
3F800007F0
3F800003F0
3F000003F8
7F000003F8
7F000001F8
7E000001FC
FE000001FC
ENDCHAR
STARTCHAR 00C5
ENCODING 197
SWIDTH 654 0
DWIDTH 40 0
BBX 38 62 1 0
BITMAP
0000FC0000
0003FF0000
0007FF8000
0007FFC000
000F87C000
000F03C000
000F03E000
000F03E000
000F03C000
000F87C000
0007FFC000
0007FF8000
0003FF0000
0000FC0000
0000000000
0000000000
0000000000
0000000000
0003FF0000
0003FF0000
0003FF8000
0007FF8000
0007FF8000
0007FFC000
000FFFC000
000FFFC000
000FCFC000
001FCFE000
001FCFE000
001F87E000
003F87F000
003F87F000
003F03F000
007F03F800
007F03F800
007E01F800
00FE01FC00
00FE01FC00
00FC00FC00
00FC00FE00
01FC00FE00
01F8007E00
01F8007F00
03F8007F00
03F0003F00
03F0003F80
07FFFFFF80
07FFFFFF80
07FFFFFFC0
0FFFFFFFC0
0FFFFFFFC0
0FFFFFFFE0
1FC0000FE0
1FC00007E0
1F800007F0
3F800007F0
3F800003F0
3F000003F8
7F000003F8
7F000001F8
7E000001FC
FE000001FC
ENDCHAR
STARTCHAR 00C6
ENCODING 198
SWIDTH 932 0
DWIDTH 57 0
BBX 53 44 1 0
BITMAP
0003FFFFFFFFF8
0003FFFFFFFFF8
0003FFFFFFFFF8
0007FFFFFFFFF8
0007FFFFFFFFF8
0007FFFFFFFFF8
000FE07E000000
000FE07E000000
000FC07E000000
001FC07E000000
001FC07E000000
001F807E000000
003F807E000000
003F807E000000
003F007E000000
007F007E000000
007F007E000000
007E007E000000
00FE007FFFFF80
00FE007FFFFF80
00FC007FFFFF80
00FC007FFFFF80
01FC007FFFFF80
01F8007FFFFF80
01F8007E000000
03F8007E000000
03F0007E000000
03F0007E000000
07FFFFFE000000
07FFFFFE000000
07FFFFFE000000
0FFFFFFE000000
0FFFFFFE000000
0FFFFFFE000000
1FC0007E000000
1FC0007E000000
1F80007E000000
3F80007E000000
3F80007FFFFFF8
3F00007FFFFFF8
7F00007FFFFFF8
7F00007FFFFFF8
7E00007FFFFFF8
FE00007FFFFFF8
ENDCHAR
STARTCHAR 00C7
ENCODING 199
SWIDTH 736 0
DWIDTH 45 0
BBX 40 58 2 -14
BITMAP
0001FFC000
000FFFF800
003FFFFE00
00FFFFFF80
01FFFFFFC0
03FFFFFFE0
07FF80FFF0
0FFC001FF8
1FF00007FC
1FE00003FC
3FC00001FE
3F800000FE
7F800000FF
7F0000007F
7F00000078
7E00000000
FE00000000
FE00000000
FE00000000
FE00000000
FE00000000
FE00000000
FE00000000
FE00000000
FE00000000
FE00000000
FE00000000
FE00000000
7E00000000
7F00000078
7F0000007F
7F800000FF
3F800000FE
3FC00001FE
1FE00003FC
1FF00007FC
0FFC001FF8
07FF80FFF0
03FFFFFFE0
01FFFFFFC0
00FFFFFF80
003FFFFE00
000FFFF800
0001FFC000
00001E0000
00001E0000
00003E0000
00003F8000
00003F8000
00000FC000
000007C000
000003C000
000007C000
00007FC000
00007FC000
0000FF8000
0000FF0000
00007E0000
ENDCHAR
STARTCHAR 00C8
ENCODING 200
SWIDTH 572 0
DWIDTH 35 0
BBX 28 60 4 0
BITMAP
00F80000
007C0000
007C0000
007C0000
003E0000
003E0000
001F0000
001F0000
001F8000
000F8000
000F8000
00000000
00000000
00000000
00000000
00000000
FFFFFFF0
FFFFFFF0
FFFFFFF0
FFFFFFF0
FFFFFFF0
FFFFFFF0
FE000000
FE000000
FE000000
FE000000
FE000000
FE000000
FE000000
FE000000
FE000000
FE000000
FE000000
FE000000
FFFFFF80
FFFFFF80
FFFFFF80
FFFFFF80
FFFFFF80
FFFFFF80
FE000000
FE000000
FE000000
FE000000
FE000000
FE000000
FE000000
FE000000
FE000000
FE000000
FE000000
FE000000
FE000000
FE000000
FFFFFFF0
FFFFFFF0
FFFFFFF0
FFFFFFF0
FFFFFFF0
FFFFFFF0
ENDCHAR
STARTCHAR 00C9
ENCODING 201
SWIDTH 572 0
DWIDTH 35 0
BBX 28 60 4 0
BITMAP
00007C00
00007C00
0000F800
0000F800
0001F000
0001F000
0003F000
0003E000
0003E000
0007C000
0007C000
00000000
00000000
00000000
00000000
00000000
FFFFFFF0
FFFFFFF0
FFFFFFF0
FFFFFFF0
FFFFFFF0
FFFFFFF0
FE000000
FE000000
FE000000
FE000000
FE000000
FE000000
FE000000
FE000000
FE000000
FE000000
FE000000
FE000000
FFFFFF80
FFFFFF80
FFFFFF80
FFFFFF80
FFFFFF80
FFFFFF80
FE000000
FE000000
FE000000
FE000000
FE000000
FE000000
FE000000
FE000000
FE000000
FE000000
FE000000
FE000000
FE000000
FE000000
FFFFFFF0
FFFFFFF0
FFFFFFF0
FFFFFFF0
FFFFFFF0
FFFFFFF0
ENDCHAR
STARTCHAR 00CA
ENCODING 202
SWIDTH 572 0
DWIDTH 35 0
BBX 28 58 4 0
BITMAP
001F8000
003FC000
007FE000
00FFF000
01F9F800
03F1F800
03F0FC00
07E07E00
0FC03F00
00000000
00000000
00000000
00000000
00000000
FFFFFFF0
FFFFFFF0
FFFFFFF0
FFFFFFF0
FFFFFFF0
FFFFFFF0
FE000000
FE000000
FE000000
FE000000
FE000000
FE000000
FE000000
FE000000
FE000000
FE000000
FE000000
FE000000
FFFFFF80
FFFFFF80
FFFFFF80
FFFFFF80
FFFFFF80
FFFFFF80
FE000000
FE000000
FE000000
FE000000
FE000000
FE000000
FE000000
FE000000
FE000000
FE000000
FE000000
FE000000
FE000000
FE000000
FFFFFFF0
FFFFFFF0
FFFFFFF0
FFFFFFF0
FFFFFFF0
FFFFFFF0
ENDCHAR
STARTCHAR 00CB
ENCODING 203
SWIDTH 572 0
DWIDTH 35 0
BBX 28 56 4 0
BITMAP
07E07E00
07E07E00
07E07E00
07E07E00
07E07E00
07E07E00
00000000
00000000
00000000
00000000
00000000
00000000
FFFFFFF0
FFFFFFF0
FFFFFFF0
FFFFFFF0
FFFFFFF0
FFFFFFF0
FE000000
FE000000
FE000000
FE000000
FE000000
FE000000
FE000000
FE000000
FE000000
FE000000
FE000000
FE000000
FFFFFF80
FFFFFF80
FFFFFF80
FFFFFF80
FFFFFF80
FFFFFF80
FE000000
FE000000
FE000000
FE000000
FE000000
FE000000
FE000000
FE000000
FE000000
FE000000
FE000000
FE000000
FE000000
FE000000
FFFFFFF0
FFFFFFF0
FFFFFFF0
FFFFFFF0
FFFFFFF0
FFFFFFF0
ENDCHAR
STARTCHAR 00CC
ENCODING 204
SWIDTH 261 0
DWIDTH 16 0
BBX 10 60 1 0
BITMAP
F800
7C00
7C00
7C00
3E00
3E00
1F00
1F00
1F00
0F80
0F80
0000
0000
0000
0000
0000
0FC0
0FC0
0FC0
0FC0
0FC0
0FC0
0FC0
0FC0
0FC0
0FC0
0FC0
0FC0
0FC0
0FC0
0FC0
0FC0
0FC0
0FC0
0FC0
0FC0
0FC0
0FC0
0FC0
0FC0
0FC0
0FC0
0FC0
0FC0
0FC0
0FC0
0FC0
0FC0
0FC0
0FC0
0FC0
0FC0
0FC0
0FC0
0FC0
0FC0
0FC0
0FC0
0FC0
0FC0
ENDCHAR
STARTCHAR 00CD
ENCODING 205
SWIDTH 261 0
DWIDTH 16 0
BBX 10 60 5 0
BITMAP
07C0
07C0
0F80
0F80
1F00
1F00
3F00
3E00
3E00
7C00
7C00
0000
0000
0000
0000
0000
FC00
FC00
FC00
FC00
FC00
FC00
FC00
FC00
FC00
FC00
FC00
FC00
FC00
FC00
FC00
FC00
FC00
FC00
FC00
FC00
FC00
FC00
FC00
FC00
FC00
FC00
FC00
FC00
FC00
FC00
FC00
FC00
FC00
FC00
FC00
FC00
FC00
FC00
FC00
FC00
FC00
FC00
FC00
FC00
ENDCHAR
STARTCHAR 00CE
ENCODING 206
SWIDTH 261 0
DWIDTH 16 0
BBX 20 58 -2 0
BITMAP
01F800
03FC00
07FE00
0FFF00
1F9F80
1F9FC0
3F0FC0
7E07E0
FC03F0
000000
000000
000000
000000
000000
01F800
01F800
01F800
01F800
01F800
01F800
01F800
01F800
01F800
01F800
01F800
01F800
01F800
01F800
01F800
01F800
01F800
01F800
01F800
01F800
01F800
01F800
01F800
01F800
01F800
01F800
01F800
01F800
01F800
01F800
01F800
01F800
01F800
01F800
01F800
01F800
01F800
01F800
01F800
01F800
01F800
01F800
01F800
01F800
ENDCHAR
STARTCHAR 00CF
ENCODING 207
SWIDTH 261 0
DWIDTH 16 0
BBX 18 56 -1 0
BITMAP
FC0FC0
FC0FC0
FC0FC0
FC0FC0
FC0FC0
FC0FC0
000000
000000
000000
000000
000000
000000
03F000
03F000
03F000
03F000
03F000
03F000
03F000
03F000
03F000
03F000
03F000
03F000
03F000
03F000
03F000
03F000
03F000
03F000
03F000
03F000
03F000
03F000
03F000
03F000
03F000
03F000
03F000
03F000
03F000
03F000
03F000
03F000
03F000
03F000
03F000
03F000
03F000
03F000
03F000
03F000
03F000
03F000
03F000
03F000
ENDCHAR
STARTCHAR 00D0
ENCODING 208
SWIDTH 687 0
DWIDTH 42 0
BBX 38 44 1 0
BITMAP
1FFFFF0000
1FFFFFE000
1FFFFFF800
1FFFFFFE00
1FFFFFFF00
1FFFFFFF80
1FC003FFC0
1FC0007FC0
1FC0001FE0
1FC0000FF0
1FC0000FF0
1FC00007F0
1FC00003F8
1FC00003F8
1FC00003F8
1FC00001FC
1FC00001FC
1FC00001FC
1FC00001FC
FFFFF001FC
FFFFF001FC
FFFFF001FC
FFFFF001FC
FFFFF001FC
1FC00001FC
1FC00001FC
1FC00001FC
1FC00001FC
1FC00001FC
1FC00003F8
1FC00003F8
1FC00007F8
1FC00007F0
1FC0000FF0
1FC0001FE0
1FC0003FE0
1FC0007FC0
1FC003FF80
1FFFFFFF80
1FFFFFFF00
1FFFFFFE00
1FFFFFF800
1FFFFFE000
1FFFFF0000
ENDCHAR
STARTCHAR 00D1
ENCODING 209
SWIDTH 703 0
DWIDTH 43 0
BBX 35 58 4 0
BITMAP
000E000000
003F80F000
007FE0F800
00FFF8F800
00FFFFF000
00F8FFF000
00F07FF000
00F01FE000
000007C000
0000000000
0000000000
0000000000
0000000000
0000000000
FE00000FE0
FF00000FE0
FF00000FE0
FF80000FE0
FFC0000FE0
FFC0000FE0
FFE0000FE0
FFF0000FE0
FFF0000FE0
FFF8000FE0
FFFC000FE0
FFFC000FE0
FEFE000FE0
FEFF000FE0
FE7F000FE0
FE3F800FE0
FE3FC00FE0
FE1FC00FE0
FE0FE00FE0
FE0FF00FE0
FE07F00FE0
FE07F80FE0
FE03FC0FE0
FE01FC0FE0
FE01FE0FE0
FE00FF0FE0
FE007F0FE0
FE007F8FE0
FE003FCFE0
FE001FCFE0
FE001FEFE0
FE000FFFE0
FE0007FFE0
FE0007FFE0
FE0003FFE0
FE0001FFE0
FE0001FFE0
FE0000FFE0
FE00007FE0
FE00007FE0
FE00003FE0
FE00001FE0
FE00001FE0
FE00000FE0
ENDCHAR
STARTCHAR 00D2
ENCODING 210
SWIDTH 736 0
DWIDTH 45 0
BBX 41 59 2 0
BITMAP
0007C0000000
0003E0000000
0003E0000000
0001F0000000
0001F0000000
0001F0000000
0000F8000000
0000F8000000
00007C000000
00007C000000
00007C000000
000000000000
000000000000
000000000000
000000000000
0001FFC00000
000FFFF80000
003FFFFE0000
00FFFFFF8000
01FFFFFFC000
03FFFFFFE000
07FF80FFF000
0FFC001FF800
1FF00007FC00
1FE00003FC00
3FC00001FE00
3F800000FE00
7F800000FF00
7F0000007F00
7F0000007F00
FE0000003F80
FE0000003F80
FE0000003F80
FE0000003F80
FE0000003F80
FE0000001F80
FE0000001F80
FE0000001F80
FE0000001F80
FE0000003F80
FE0000003F80
FE0000003F80
FE0000003F80
7E0000003F80
7F0000007F00
7F0000007F00
7F800000FF00
3F800000FE00
3FC00001FE00
1FE00003FC00
1FF00007FC00
0FFC001FF800
07FF807FF000
03FFFFFFE000
01FFFFFFC000
00FFFFFF8000
003FFFFE0000
000FFFF80000
0000FFC00000
ENDCHAR
STARTCHAR 00D3
ENCODING 211
SWIDTH 736 0
DWIDTH 45 0
BBX 41 59 2 0
BITMAP
000001F00000
000003E00000
000003E00000
000003E00000
000007C00000
000007C00000
00000F800000
00000F800000
00000F800000
00001F000000
00001F000000
000000000000
000000000000
000000000000
000000000000
0001FFC00000
000FFFF80000
003FFFFE0000
00FFFFFF8000
01FFFFFFC000
03FFFFFFE000
07FF80FFF000
0FFC001FF800
1FF00007FC00
1FE00003FC00
3FC00001FE00
3F800000FE00
7F800000FF00
7F0000007F00
7F0000007F00
FE0000003F80
FE0000003F80
FE0000003F80
FE0000003F80
FE0000003F80
FE0000001F80
FE0000001F80
FE0000001F80
FE0000001F80
FE0000003F80
FE0000003F80
FE0000003F80
FE0000003F80
7E0000003F80
7F0000007F00
7F0000007F00
7F800000FF00
3F800000FE00
3FC00001FE00
1FE00003FC00
1FF00007FC00
0FFC001FF800
07FF807FF000
03FFFFFFE000
01FFFFFFC000
00FFFFFF8000
003FFFFE0000
000FFFF80000
0000FFC00000
ENDCHAR
STARTCHAR 00D4
ENCODING 212
SWIDTH 736 0
DWIDTH 45 0
BBX 41 57 2 0
BITMAP
00007F000000
0000FF800000
0001FFC00000
0001FFC00000
0003F7E00000
0007E3F00000
000FC1F80000
001F80FC0000
003F007E0000
000000000000
000000000000
000000000000
000000000000
0001FFC00000
000FFFF80000
003FFFFE0000
00FFFFFF8000
01FFFFFFC000
03FFFFFFE000
07FF80FFF000
0FFC001FF800
1FF00007FC00
1FE00003FC00
3FC00001FE00
3F800000FE00
7F800000FF00
7F0000007F00
7F0000007F00
FE0000003F80
FE0000003F80
FE0000003F80
FE0000003F80
FE0000003F80
FE0000001F80
FE0000001F80
FE0000001F80
FE0000001F80
FE0000003F80
FE0000003F80
FE0000003F80
FE0000003F80
7E0000003F80
7F0000007F00
7F0000007F00
7F800000FF00
3F800000FE00
3FC00001FE00
1FE00003FC00
1FF00007FC00
0FFC001FF800
07FF807FF000
03FFFFFFE000
01FFFFFFC000
00FFFFFF8000
003FFFFE0000
000FFFF80000
0000FFC00000
ENDCHAR
STARTCHAR 00D5
ENCODING 213
SWIDTH 736 0
DWIDTH 45 0
BBX 41 57 2 0
BITMAP
0003C0000000
000FF01E0000
000FFC1E0000
001FFE1E0000
001FFFFE0000
001E3FFE0000
001E0FFE0000
001E03FC0000
000000F80000
000000000000
000000000000
000000000000
000000000000
0001FFC00000
000FFFF80000
003FFFFE0000
00FFFFFF8000
01FFFFFFC000
03FFFFFFE000
07FF80FFF000
0FFC001FF800
1FF00007FC00
1FE00003FC00
3FC00001FE00
3F800000FE00
7F800000FF00
7F0000007F00
7F0000007F00
FE0000003F80
FE0000003F80
FE0000003F80
FE0000003F80
FE0000003F80
FE0000001F80
FE0000001F80
FE0000001F80
FE0000001F80
FE0000003F80
FE0000003F80
FE0000003F80
FE0000003F80
7E0000003F80
7F0000007F00
7F0000007F00
7F800000FF00
3F800000FE00
3FC00001FE00
1FE00003FC00
1FF00007FC00
0FFC001FF800
07FF807FF000
03FFFFFFE000
01FFFFFFC000
00FFFFFF8000
003FFFFE0000
000FFFF80000
0000FFC00000
ENDCHAR
STARTCHAR 00D6
ENCODING 214
SWIDTH 736 0
DWIDTH 45 0
BBX 41 55 2 0
BITMAP
001FC0FC0000
001FC0FC0000
001FC0FC0000
001FC0FC0000
001FC0FC0000
001FC0FC0000
000000000000
000000000000
000000000000
000000000000
000000000000
0001FFC00000
000FFFF80000
003FFFFE0000
00FFFFFF8000
01FFFFFFC000
03FFFFFFE000
07FF80FFF000
0FFC001FF800
1FF00007FC00
1FE00003FC00
3FC00001FE00
3F800000FE00
7F800000FF00
7F0000007F00
7F0000007F00
FE0000003F80
FE0000003F80
FE0000003F80
FE0000003F80
FE0000003F80
FE0000001F80
FE0000001F80
FE0000001F80
FE0000001F80
FE0000003F80
FE0000003F80
FE0000003F80
FE0000003F80
7E0000003F80
7F0000007F00
7F0000007F00
7F800000FF00
3F800000FE00
3FC00001FE00
1FE00003FC00
1FF00007FC00
0FFC001FF800
07FF807FF000
03FFFFFFE000
01FFFFFFC000
00FFFFFF8000
003FFFFE0000
000FFFF80000
0000FFC00000
ENDCHAR
STARTCHAR 00D7
ENCODING 215
SWIDTH 507 0
DWIDTH 31 0
BBX 23 23 4 10
BITMAP
100010
380038
7C007C
FE00FE
7F01FC
3F83F8
1FC7F0
0FEFE0
07FFC0
03FF80
01FF00
00FE00
01FF00
03FF80
07FFC0
0FEFE0
1FC7F0
3F83F8
7F01FC
FE00FE
7C007C
380038
100010
ENDCHAR
STARTCHAR 00D8
ENCODING 216
SWIDTH 736 0
DWIDTH 45 0
BBX 42 44 2 0
BITMAP
0001FFC00400
000FFFF80E00
003FFFFE1F00
00FFFFFFBFC0
01FFFFFFFF80
03FFFFFFFF80
07FF80FFFF00
0FFC001FFE00
1FF00007FC00
1FE00007FC00
3FC0000FFE00
3F80001FFE00
7F80003FFF00
7F00007FFF00
7F0000FF7F80
FE0001FE3F80
FE0003FC3F80
FE0007F83F80
FE000FF03F80
FE001FE03F80
FE003FC01F80
FE003F801F80
FE007F001F80
FE00FF001F80
FE01FE003F80
FE03FC003F80
FE07F8003F80
FE0FF0003F80
7E1FE0003F80
7F3FC0007F00
7F7F80007F00
7FFF0000FF00
3FFE0000FE00
3FFC0001FE00
1FF80003FC00
0FF00007FC00
1FFC001FF800
3FFF807FF000
7FFFFFFFE000
FFFFFFFFC000
7FFFFFFF8000
3E3FFFFE0000
1C0FFFF80000
0801FFC00000
ENDCHAR
STARTCHAR 00D9
ENCODING 217
SWIDTH 720 0
DWIDTH 44 0
BBX 35 60 4 0
BITMAP
000F800000
000F800000
000F800000
0007C00000
0007C00000
0003E00000
0003E00000
0003E00000
0001F00000
0001F00000
0000F80000
0000000000
0000000000
0000000000
0000000000
0000000000
FE000007E0
FE000007E0
FE000007E0
FE000007E0
FE000007E0
FE000007E0
FE000007E0
FE000007E0
FE000007E0
FE000007E0
FE000007E0
FE000007E0
FE000007E0
FE000007E0
FE000007E0
FE000007E0
FE000007E0
FE000007E0
FE000007E0
FE000007E0
FE000007E0
FE000007E0
FE000007E0
FE000007E0
FE000007E0
FE000007E0
FE000007E0
FE000007E0
FE000007E0
FE000007E0
7E00000FE0
7F00000FE0
7F00001FE0
7F80001FC0
3FC0003FC0
3FE0007F80
1FF001FF80
1FFC07FF00
0FFFFFFE00
07FFFFFC00
03FFFFF800
00FFFFF000
003FFFC000
0007FC0000
ENDCHAR
STARTCHAR 00DA
ENCODING 218
SWIDTH 720 0
DWIDTH 44 0
BBX 35 60 4 0
BITMAP
00001F0000
00001F0000
00001F0000
00003E0000
00003E0000
00007C0000
00007C0000
0000F80000
0000F80000
0000F80000
0001F00000
0000000000
0000000000
0000000000
0000000000
0000000000
FE000007E0
FE000007E0
FE000007E0
FE000007E0
FE000007E0
FE000007E0
FE000007E0
FE000007E0
FE000007E0
FE000007E0
FE000007E0
FE000007E0
FE000007E0
FE000007E0
FE000007E0
FE000007E0
FE000007E0
FE000007E0
FE000007E0
FE000007E0
FE000007E0
FE000007E0
FE000007E0
FE000007E0
FE000007E0
FE000007E0
FE000007E0
FE000007E0
FE000007E0
FE000007E0
7E00000FE0
7F00000FE0
7F00001FE0
7F80001FC0
3FC0003FC0
3FE0007F80
1FF001FF80
1FFC07FF00
0FFFFFFE00
07FFFFFC00
03FFFFF800
00FFFFF000
003FFFC000
0007FC0000
ENDCHAR
STARTCHAR 00DB
ENCODING 219
SWIDTH 720 0
DWIDTH 44 0
BBX 35 58 4 0
BITMAP
0001F80000
0003FC0000
0007FE0000
000FFF0000
001FBF0000
003F1F8000
007E0FC000
007E07E000
00FC03F000
0000000000
0000000000
0000000000
0000000000
0000000000
FE000007E0
FE000007E0
FE000007E0
FE000007E0
FE000007E0
FE000007E0
FE000007E0
FE000007E0
FE000007E0
FE000007E0
FE000007E0
FE000007E0
FE000007E0
FE000007E0
FE000007E0
FE000007E0
FE000007E0
FE000007E0
FE000007E0
FE000007E0
FE000007E0
FE000007E0
FE000007E0
FE000007E0
FE000007E0
FE000007E0
FE000007E0
FE000007E0
FE000007E0
FE000007E0
7E00000FE0
7F00000FE0
7F00001FE0
7F80001FC0
3FC0003FC0
3FE0007F80
1FF001FF80
1FFC07FF00
0FFFFFFE00
07FFFFFC00
03FFFFF800
00FFFFF000
003FFFC000
0007FC0000
ENDCHAR
STARTCHAR 00DC
ENCODING 220
SWIDTH 720 0
DWIDTH 44 0
BBX 35 56 4 0
BITMAP
007E07E000
007E07E000
007E07E000
007E07E000
007E07E000
007E07E000
0000000000
0000000000
0000000000
0000000000
0000000000
0000000000
FE000007E0
FE000007E0
FE000007E0
FE000007E0
FE000007E0
FE000007E0
FE000007E0
FE000007E0
FE000007E0
FE000007E0
FE000007E0
FE000007E0
FE000007E0
FE000007E0
FE000007E0
FE000007E0
FE000007E0
FE000007E0
FE000007E0
FE000007E0
FE000007E0
FE000007E0
FE000007E0
FE000007E0
FE000007E0
FE000007E0
FE000007E0
FE000007E0
FE000007E0
FE000007E0
7E00000FE0
7F00000FE0
7F00001FE0
7F80001FC0
3FC0003FC0
3FE0007F80
1FF001FF80
1FFC07FF00
0FFFFFFE00
07FFFFFC00
03FFFFF800
00FFFFF000
003FFFC000
0007FC0000
ENDCHAR
STARTCHAR 00DD
ENCODING 221
SWIDTH 589 0
DWIDTH 36 0
BBX 36 60 0 0
BITMAP
00000F8000
00001F0000
00001F0000
00003E0000
00003E0000
00003E0000
00007C0000
00007C0000
0000F80000
0000F80000
0000F80000
0000000000
0000000000
0000000000
0000000000
0000000000
FF00000FF0
7F00000FE0
7F80001FE0
3F80001FC0
1FC0003FC0
1FE0003F80
0FE0007F00
0FF000FF00
07F000FE00
07F801FE00
03FC01FC00
01FC03FC00
01FE03F800
00FE07F000
00FF0FF000
007F0FE000
007F9FE000
003FDFC000
001FFFC000
001FFF8000
000FFF0000
000FFF0000
0007FE0000
0003FE0000
0003FC0000
0001FC0000
0001F80000
0001F80000
0001F80000
0001F80000
0001F80000
0001F80000
0001F80000
0001F80000
0001F80000
0001F80000
0001F80000
0001F80000
0001F80000
0001F80000
0001F80000
0001F80000
0001F80000
0001F80000
ENDCHAR
STARTCHAR 00DE
ENCODING 222
SWIDTH 621 0
DWIDTH 38 0
BBX 32 44 4 0
BITMAP
FE000000
FE000000
FE000000
FE000000
FE000000
FE000000
FE000000
FE000000
FFFFFC00
FFFFFF00
FFFFFFC0
FFFFFFE0
FFFFFFF0
FFFFFFF8
FE000FFC
FE0003FC
FE0001FE
FE0000FE
FE00007E
FE00007F
FE00007F
FE00007F
FE00007F
FE00007F
FE00007F
FE00007E
FE0000FE
FE0001FE
FE0003FC
FE000FFC
FFFFFFF8
FFFFFFF0
FFFFFFE0
FFFFFFC0
FFFFFF00
FFFFFC00
FE000000
FE000000
FE000000
FE000000
FE000000
FE000000
FE000000
FE000000
ENDCHAR
STARTCHAR 00DF
ENCODING 223
SWIDTH 621 0
DWIDTH 38 0
BBX 30 44 4 0
BITMAP
007F8000
03FFF000
07FFFC00
1FFFFE00
1FFFFF00
3FFFFF80
7FE0FF80
7F803FC0
7F001FC0
FE000FC0
FE000FE0
FE000FE0
FE000FE0
FE000FE0
FE000FC0
FE001FC0
FE003FC0
FE00FF80
FE07FF00
FE07FE00
FE07FF00
FE07FFC0
FE07FFE0
FE07FFF0
FE001FF8
FE0007F8
FE0003FC
FE0001FC
FE0001FC
FE0000FC
FE0000FC
FE0000FC
FE0000FC
FE0001FC
FE0001FC
FE0003FC
FE0007F8
FE187FF8
FE1FFFF0
FE1FFFF0
FE1FFFE0
FE1FFF80
FE1FFF00
FE1FF800
ENDCHAR
STARTCHAR 00E0
ENCODING 224
SWIDTH 572 0
DWIDTH 35 0
BBX 29 48 2 0
BITMAP
007C0000
007C0000
003E0000
003E0000
001F0000
001F0000
001F0000
000F8000
000F8000
0007C000
0007C000
00000000
00000000
00000000
00000000
001FF000
00FFFE00
03FFFF80
07FFFFC0
0FFFFFE0
1FFFFFF0
1FF01FF0
3FC007F0
3F8003F8
0F0003F8
000001F8
000001F8
00007FF8
001FFFF8
01FFFFF8
07FFFFF8
0FFFFFF8
1FFFE1F8
3FF801F8
7FC001F8
7F0003F8
7E0003F8
FE0003F8
FE0007F8
FE0007F8
7E000FF8
7F003FF8
7FE1FFF8
3FFFFFF8
1FFFFDF8
0FFFF1F8
07FFE1F8
00FF0000
ENDCHAR
STARTCHAR 00E1
ENCODING 225
SWIDTH 572 0
DWIDTH 35 0
BBX 29 48 2 0
BITMAP
00003E00
00007C00
00007C00
0000F800
0000F800
0000F800
0001F000
0001F000
0003E000
0003E000
0003E000
00000000
00000000
00000000
00000000
001FF000
00FFFE00
03FFFF80
07FFFFC0
0FFFFFE0
1FFFFFF0
1FF01FF0
3FC007F0
3F8003F8
0F0003F8
000001F8
000001F8
00007FF8
001FFFF8
01FFFFF8
07FFFFF8
0FFFFFF8
1FFFE1F8
3FF801F8
7FC001F8
7F0003F8
7E0003F8
FE0003F8
FE0007F8
FE0007F8
7E000FF8
7F003FF8
7FE1FFF8
3FFFFFF8
1FFFFDF8
0FFFF1F8
07FFE1F8
00FF0000
ENDCHAR
STARTCHAR 00E2
ENCODING 226
SWIDTH 572 0
DWIDTH 35 0
BBX 29 46 2 0
BITMAP
000FE000
000FF000
001FF800
003FFC00
007E7E00
00FC7E00
01F83F00
03F81F80
03F00FC0
00000000
00000000
00000000
00000000
001FF000
00FFFE00
03FFFF80
07FFFFC0
0FFFFFE0
1FFFFFF0
1FF01FF0
3FC007F0
3F8003F8
0F0003F8
000001F8
000001F8
00007FF8
001FFFF8
01FFFFF8
07FFFFF8
0FFFFFF8
1FFFE1F8
3FF801F8
7FC001F8
7F0003F8
7E0003F8
FE0003F8
FE0007F8
FE0007F8
7E000FF8
7F003FF8
7FE1FFF8
3FFFFFF8
1FFFFDF8
0FFFF1F8
07FFE1F8
00FF0000
ENDCHAR
STARTCHAR 00E3
ENCODING 227
SWIDTH 572 0
DWIDTH 35 0
BBX 29 46 2 0
BITMAP
00380000
00FE03C0
01FF83E0
03FFE3E0
03FFFFC0
03E3FFC0
03C1FFC0
03C07F80
00001F00
00000000
00000000
00000000
00000000
001FF000
00FFFE00
03FFFF80
07FFFFC0
0FFFFFE0
1FFFFFF0
1FF01FF0
3FC007F0
3F8003F8
0F0003F8
000001F8
000001F8
00007FF8
001FFFF8
01FFFFF8
07FFFFF8
0FFFFFF8
1FFFE1F8
3FFC01F8
7FC001F8
7F8003F8
7F0003F8
FE0003F8
FE0007F8
FE0007F8
7E000FF8
7F003FF8
7FE1FFF8
3FFFFFF8
1FFFFDF8
0FFFF1F8
07FFE1F8
00FF0000
ENDCHAR
STARTCHAR 00E4
ENCODING 228
SWIDTH 572 0
DWIDTH 35 0
BBX 29 44 2 0
BITMAP
01F81F80
01F81F80
01F81F80
01F81F80
01F81F80
01F81F80
00000000
00000000
00000000
00000000
00000000
001FF000
00FFFE00
03FFFF80
07FFFFC0
0FFFFFE0
1FFFFFF0
1FF01FF0
3FC007F0
3F8003F8
0F0003F8
000001F8
000001F8
00007FF8
001FFFF8
01FFFFF8
07FFFFF8
0FFFFFF8
1FFFE1F8
3FF801F8
7FC001F8
7F0003F8
7E0003F8
FE0003F8
FE0007F8
FE0007F8
7E000FF8
7F003FF8
7FE1FFF8
3FFFFFF8
1FFFFDF8
0FFFF1F8
07FFE1F8
00FF0000
ENDCHAR
STARTCHAR 00E5
ENCODING 229
SWIDTH 572 0
DWIDTH 35 0
BBX 29 50 2 0
BITMAP
0007E000
001FF000
003FFC00
007FFC00
007C3E00
00F81E00
00F01E00
00F01E00
00F81E00
007C3E00
007FFC00
003FFC00
001FF800
0007E000
00000000
00000000
00000000
001FF000
00FFFE00
03FFFF80
07FFFFC0
0FFFFFE0
1FFFFFF0
1FF01FF0
3FC007F0
3F8003F8
0F0003F8
000001F8
000001F8
00007FF8
001FFFF8
01FFFFF8
07FFFFF8
0FFFFFF8
1FFFE1F8
3FF801F8
7FC001F8
7F0003F8
7E0003F8
FE0003F8
FE0007F8
FE0007F8
7E000FF8
7F003FF8
7FE1FFF8
3FFFFFF8
1FFFFDF8
0FFFF1F8
07FFE1F8
00FF0000
ENDCHAR
STARTCHAR 00E6
ENCODING 230
SWIDTH 932 0
DWIDTH 57 0
BBX 53 33 2 0
BITMAP
001FF0003FC000
00FFFE01FFF800
01FFFF03FFFE00
07FFFFCFFFFF00
0FFFFFFFFFFF80
1FFFFFFFFFFFC0
1FF01FFFC01FC0
3FC007FF800FE0
3F8003FF0007E0
070003FE0003F0
000003FC0003F0
000001FC0003F0
000001FC0003F0
0001FFFFFFFFF8
007FFFFFFFFFF8
03FFFFFFFFFFF8
0FFFFFFFFFFFF8
1FFFFFFFFFFFF8
3FF001FC000000
7F8001FC000000
7F0001FC000000
7E0003FC000000
FE0003FE000200
FE0007FE0003E0
FE0007FF0007F0
7E000FFF800FF0
7F003FBFE07FE0
7FC1FF1FFFFFC0
3FFFFF1FFFFF80
1FFFFE0FFFFF00
0FFFF803FFFE00
07FFF000FFF800
00FF00003FC000
ENDCHAR
STARTCHAR 00E7
ENCODING 231
SWIDTH 572 0
DWIDTH 35 0
BBX 31 47 2 -14
BITMAP
000FF800
007FFF00
01FFFF80
03FFFFE0
07FFFFF0
0FFFFFF8
1FF81FF8
1FE007FC
3FC003FC
3F8001FE
7F8000F0
7F000080
7F000000
7F000000
7E000000
FE000000
FE000000
FE000000
FE000000
7E000000
7F000000
7F000000
7F000080
3F8000FC
3FC001FC
3FC003FC
1FF007F8
0FFFFFF8
07FFFFF0
03FFFFE0
01FFFFC0
007FFF00
000FF800
0003C000
0003C000
0007C000
0007F000
0007F000
0001F800
0000F800
00007800
0000F800
000FF800
000FF800
000FF000
001FE000
000FC000
ENDCHAR
STARTCHAR 00E8
ENCODING 232
SWIDTH 589 0
DWIDTH 36 0
BBX 32 48 2 0
BITMAP
003E0000
003E0000
001F0000
001F0000
000F8000
000F8000
000F8000
0007C000
0007C000
0003E000
0003E000
00000000
00000000
00000000
00000000
000FF800
007FFF00
01FFFFC0
03FFFFE0
07FFFFF0
0FFFFFF8
1FF007F8
1FC001FC
3F8000FC
3F8000FE
7F00007E
7F00007E
7F00007F
7FFFFFFF
7FFFFFFF
FFFFFFFF
FFFFFFFF
FFFFFFFF
7E000000
7E000000
7F000000
7F000000
7F800060
3F8000FC
3FC001FE
1FE003FE
1FF80FFC
0FFFFFF8
07FFFFF0
03FFFFE0
00FFFFC0
003FFF00
0007F800
ENDCHAR
STARTCHAR 00E9
ENCODING 233
SWIDTH 589 0
DWIDTH 36 0
BBX 32 48 2 0
BITMAP
00001F00
00001F00
00003E00
00003E00
00007C00
00007C00
00007C00
0000F800
0000F800
0001F000
0001F000
00000000
00000000
00000000
00000000
000FF800
007FFF00
01FFFFC0
03FFFFE0
07FFFFF0
0FFFFFF8
1FF007F8
1FC001FC
3F8000FC
3F8000FE
7F00007E
7F00007E
7F00007F
7FFFFFFF
7FFFFFFF
FFFFFFFF
FFFFFFFF
FFFFFFFF
7E000000
7E000000
7F000000
7F000000
7F800060
3F8000FC
3FC001FE
1FE003FE
1FF80FFC
0FFFFFF8
07FFFFF0
03FFFFE0
00FFFFC0
003FFF00
0007F800
ENDCHAR
STARTCHAR 00EA
ENCODING 234
SWIDTH 589 0
DWIDTH 36 0
BBX 32 46 2 0
BITMAP
0007F000
000FF800
001FFC00
001FFC00
003F7E00
007E3F00
00FC1F80
01F80FC0
03F007E0
00000000
00000000
00000000
00000000
000FF800
007FFF00
01FFFFC0
03FFFFE0
07FFFFF0
0FFFFFF8
1FF007F8
1FC001FC
3F8000FC
3F8000FE
7F00007E
7F00007E
7F00007F
7FFFFFFF
7FFFFFFF
FFFFFFFF
FFFFFFFF
FFFFFFFF
7E000000
7E000000
7F000000
7F000000
7F800060
3F8000FC
3FC001FE
1FE003FE
1FF80FFC
0FFFFFF8
07FFFFF0
03FFFFE0
00FFFFC0
003FFF00
0007F800
ENDCHAR
STARTCHAR 00EB
ENCODING 235
SWIDTH 589 0
DWIDTH 36 0
BBX 32 44 2 0
BITMAP
01F80FC0
01F80FC0
01F80FC0
01F80FC0
01F80FC0
01F80FC0
00000000
00000000
00000000
00000000
00000000
000FF800
007FFF00
01FFFFC0
03FFFFE0
07FFFFF0
0FFFFFF8
1FF007F8
1FC001FC
3F8000FC
3F8000FE
7F00007E
7F00007E
7F00007F
7FFFFFFF
7FFFFFFF
FFFFFFFF
FFFFFFFF
FFFFFFFF
7E000000
7E000000
7F000000
7F000000
7F800060
3F8000FC
3FC001FE
1FE003FE
1FF80FFC
0FFFFFF8
07FFFFF0
03FFFFE0
00FFFFC0
003FFF00
0007F800
ENDCHAR
STARTCHAR 00EC
ENCODING 236
SWIDTH 261 0
DWIDTH 16 0
BBX 10 49 1 0
BITMAP
F800
7C00
7C00
7C00
3E00
3E00
1F00
1F00
1F00
0F80
0F80
0000
0000
0000
0000
0000
0FC0
0FC0
0FC0
0FC0
0FC0
0FC0
0FC0
0FC0
0FC0
0FC0
0FC0
0FC0
0FC0
0FC0
0FC0
0FC0
0FC0
0FC0
0FC0
0FC0
0FC0
0FC0
0FC0
0FC0
0FC0
0FC0
0FC0
0FC0
0FC0
0FC0
0FC0
0FC0
0FC0
ENDCHAR
STARTCHAR 00ED
ENCODING 237
SWIDTH 261 0
DWIDTH 16 0
BBX 10 49 5 0
BITMAP
07C0
07C0
0F80
0F80
1F00
1F00
1F00
3E00
3E00
7C00
7C00
0000
0000
0000
0000
0000
FC00
FC00
FC00
FC00
FC00
FC00
FC00
FC00
FC00
FC00
FC00
FC00
FC00
FC00
FC00
FC00
FC00
FC00
FC00
FC00
FC00
FC00
FC00
FC00
FC00
FC00
FC00
FC00
FC00
FC00
FC00
FC00
FC00
ENDCHAR
STARTCHAR 00EE
ENCODING 238
SWIDTH 261 0
DWIDTH 16 0
BBX 21 47 -2 0
BITMAP
01FC00
03FC00
03FE00
07FF00
0FDF80
1F8FC0
3F07E0
7E03F0
FC03F0
000008
000000
000000
000000
000000
01F800
01F800
01F800
01F800
01F800
01F800
01F800
01F800
01F800
01F800
01F800
01F800
01F800
01F800
01F800
01F800
01F800
01F800
01F800
01F800
01F800
01F800
01F800
01F800
01F800
01F800
01F800
01F800
01F800
01F800
01F800
01F800
01F800
ENDCHAR
STARTCHAR 00EF
ENCODING 239
SWIDTH 261 0
DWIDTH 16 0
BBX 18 44 -1 0
BITMAP
FC0FC0
FC0FC0
FC0FC0
FC0FC0
FC0FC0
FC0FC0
000000
000000
000000
000000
000000
03F000
03F000
03F000
03F000
03F000
03F000
03F000
03F000
03F000
03F000
03F000
03F000
03F000
03F000
03F000
03F000
03F000
03F000
03F000
03F000
03F000
03F000
03F000
03F000
03F000
03F000
03F000
03F000
03F000
03F000
03F000
03F000
03F000
ENDCHAR
STARTCHAR 00F0
ENCODING 240
SWIDTH 589 0
DWIDTH 36 0
BBX 32 47 2 0
BITMAP
00000300
000E0780
000FEFC0
001FFFC0
001FFF80
001FFF00
0007FF00
0000FF80
0001FFC0
0003FFE0
0003F7F0
0001E3F0
0000C1F8
000000F8
000000FC
000FF07C
007FFE7C
01FFFF7E
03FFFFFE
07FFFFFE
0FFFFFFE
1FF00FFE
3FC003FE
3F8001FE
3F0000FE
7F0000FF
7F00007F
7E00007F
7E00007F
FE00007F
FE00007F
FE00007F
FE00007F
7E00007F
7E00007E
7F00007E
7F0000FE
3F0000FE
3F8001FC
3FC003FC
1FF00FF8
0FFFFFF0
07FFFFF0
03FFFFE0
01FFFF80
007FFE00
000FF800
ENDCHAR
STARTCHAR 00F1
ENCODING 241
SWIDTH 621 0
DWIDTH 38 0
BBX 30 46 4 0
BITMAP
01F00000
03FC0780
07FF0780
07FFCF80
07FFFF80
0F87FF80
0783FF00
0780FE00
00003C00
00000000
00000000
00000000
00000000
0007F800
FC3FFE00
FCFFFF80
FDFFFFC0
FFFFFFE0
FFFFFFE0
FFF03FF0
FFC00FF0
FF8007F8
FF0003F8
FF0003F8
FE0001FC
FE0001FC
FE0001FC
FE0001FC
FE0001FC
FE0001FC
FE0001FC
FE0001FC
FE0001FC
FE0001FC
FE0001FC
FE0001FC
FE0001FC
FE0001FC
FE0001FC
FE0001FC
FE0001FC
FE0001FC
FE0001FC
FE0001FC
FE0001FC
FE0001FC
ENDCHAR
STARTCHAR 00F2
ENCODING 242
SWIDTH 605 0
DWIDTH 37 0
BBX 33 48 2 0
BITMAP
007C000000
003E000000
003E000000
001F000000
001F000000
001F800000
000F800000
000F800000
0007C00000
0007C00000
0003E00000
0000000000
0000000000
0000000000
0000000000
000FF80000
007FFF0000
01FFFFC000
03FFFFE000
07FFFFF000
0FFFFFF800
1FF80FFC00
1FE003FC00
3FC001FE00
3F8000FE00
7F00007F00
7F00007F00
7F00007F00
7E00003F80
7E00003F80
FE00003F80
FE00003F80
FE00003F80
7E00003F80
7E00003F80
7F00007F00
7F00007F00
7F00007F00
3F8000FE00
3FC001FE00
1FE003FC00
1FF80FFC00
0FFFFFF800
07FFFFF000
03FFFFE000
00FFFFC000
007FFF0000
000FF80000
ENDCHAR
STARTCHAR 00F3
ENCODING 243
SWIDTH 605 0
DWIDTH 37 0
BBX 33 48 2 0
BITMAP
00003E0000
00003E0000
00003E0000
00007C0000
00007C0000
0000F80000
0000F80000
0000F80000
0001F00000
0001F00000
0003E00000
0000000000
0000000000
0000000000
0000000000
000FF80000
007FFF0000
01FFFFC000
03FFFFE000
07FFFFF000
0FFFFFF800
1FF80FFC00
1FE003FC00
3FC001FE00
3F8000FE00
7F00007F00
7F00007F00
7F00007F00
7E00003F80
7E00003F80
FE00003F80
FE00003F80
FE00003F80
7E00003F80
7E00003F80
7F00007F00
7F00007F00
7F00007F00
3F8000FE00
3FC001FE00
1FE003FC00
1FF80FFC00
0FFFFFF800
07FFFFF000
03FFFFE000
00FFFFC000
007FFF0000
000FF80000
ENDCHAR
STARTCHAR 00F4
ENCODING 244
SWIDTH 605 0
DWIDTH 37 0
BBX 33 46 2 0
BITMAP
0007F00000
000FF80000
001FFC0000
001FFC0000
003F7E0000
007E3F0000
00FC1F8000
01F80FC000
03F007E000
0000000000
0000000000
0000000000
0000000000
000FF80000
007FFF0000
01FFFFC000
03FFFFE000
07FFFFF000
0FFFFFF800
1FF80FFC00
1FE003FC00
3FC001FE00
3F8000FE00
7F00007F00
7F00007F00
7F00007F00
7E00003F80
7E00003F80
FE00003F80
FE00003F80
FE00003F80
7E00003F80
7E00003F80
7F00007F00
7F00007F00
7F00007F00
3F8000FE00
3FC001FE00
1FE003FC00
1FF80FFC00
0FFFFFF800
07FFFFF000
03FFFFE000
00FFFFC000
007FFF0000
000FF80000
ENDCHAR
STARTCHAR 00F5
ENCODING 245
SWIDTH 605 0
DWIDTH 37 0
BBX 33 46 2 0
BITMAP
0038000000
00FF01E000
01FF81E000
01FFE3E000
03FFFFE000
03E3FFE000
03E0FFC000
03E07F8000
00001F0000
0000000000
0000000000
0000000000
0000000000
000FF80000
007FFF0000
01FFFFC000
03FFFFE000
07FFFFF000
0FFFFFF800
1FF80FFC00
1FE003FC00
3FC001FE00
3F8000FE00
7F00007F00
7F00007F00
7F00007F00
7E00003F80
7E00003F80
FE00003F80
FE00003F80
FE00003F80
7E00003F80
7E00003F80
7F00007F00
7F00007F00
7F00007F00
3F8000FE00
3FC001FE00
1FE003FC00
1FF80FFC00
0FFFFFF800
07FFFFF000
03FFFFE000
00FFFFC000
007FFF0000
000FF80000
ENDCHAR
STARTCHAR 00F6
ENCODING 246
SWIDTH 605 0
DWIDTH 37 0
BBX 33 44 2 0
BITMAP
01FC0FC000
01FC0FC000
01FC0FC000
01FC0FC000
01FC0FC000
01FC0FC000
0000000000
0000000000
0000000000
0000000000
0000000000
000FF80000
007FFF0000
01FFFFC000
03FFFFE000
07FFFFF000
0FFFFFF800
1FF80FFC00
1FE003FC00
3FC001FE00
3F8000FE00
7F00007F00
7F00007F00
7F00007F00
7E00003F80
7E00003F80
FE00003F80
FE00003F80
FE00003F80
7E00003F80
7E00003F80
7F00007F00
7F00007F00
7F00007F00
3F8000FE00
3FC001FE00
1FE003FC00
1FF80FFC00
0FFFFFF800
07FFFFF000
03FFFFE000
00FFFFC000
007FFF0000
000FF80000
ENDCHAR
STARTCHAR 00F7
ENCODING 247
SWIDTH 540 0
DWIDTH 33 0
BBX 25 24 4 10
BITMAP
007F0000
007F0000
007F0000
007F0000
007F0000
007F0000
00000000
00000000
00000000
FFFFFF80
FFFFFF80
FFFFFF80
FFFFFF80
FFFFFF80
00000000
00000000
00000000
00000000
007F0000
007F0000
007F0000
007F0000
007F0000
007F0000
ENDCHAR
STARTCHAR 00F8
ENCODING 248
SWIDTH 605 0
DWIDTH 37 0
BBX 33 33 2 0
BITMAP
000FF80400
007FFF0E00
01FFFFDF00
03FFFFFF80
07FFFFFF80
0FFFFFFF00
1FF80FFE00
1FE003FE00
3FC003FE00
3F8007FF00
7F000FFF00
7F001FFF00
7F003F7F00
7E00FE3F80
7E01FC3F80
FE03F83F80
FE07F03F80
FE0FE03F80
7E1FC03F80
7F3F803F80
7F7F007F00
7FFE007F00
7FFC007F00
3FF000FE00
3FE001FE00
1FE003FC00
7FF80FFC00
FFFFFFF800
FFFFFFF000
FFFFFFE000
7DFFFFC000
387FFF0000
100FF80000
ENDCHAR
STARTCHAR 00F9
ENCODING 249
SWIDTH 621 0
DWIDTH 38 0
BBX 29 49 4 0
BITMAP
00F80000
00F80000
007C0000
007C0000
007E0000
003E0000
003E0000
001F0000
001F0000
000F8000
000F8000
00000000
00000000
00000000
00000000
00000000
FC0001F8
FC0001F8
FC0001F8
FC0001F8
FC0001F8
FC0001F8
FC0001F8
FC0001F8
FC0001F8
FC0001F8
FC0001F8
FC0001F8
FC0001F8
FC0001F8
FC0001F8
FC0001F8
FC0001F8
FC0001F8
FC0001F8
FC0001F8
FE0003F8
FE0003F8
FE0003F8
FF0007F8
7F8007F8
7FC01FF8
7FF07FF8
3FFFFFF8
1FFFFEF8
0FFFFCF8
07FFF8F8
03FFF0F8
007F80F8
ENDCHAR
STARTCHAR 00FA
ENCODING 250
SWIDTH 621 0
DWIDTH 38 0
BBX 29 49 4 0
BITMAP
0000F800
0000F800
0001F000
0001F000
0003E000
0003E000
0003E000
0007C000
0007C000
000F8000
000F8000
00000000
00000000
00000000
00000000
00000000
FC0001F8
FC0001F8
FC0001F8
FC0001F8
FC0001F8
FC0001F8
FC0001F8
FC0001F8
FC0001F8
FC0001F8
FC0001F8
FC0001F8
FC0001F8
FC0001F8
FC0001F8
FC0001F8
FC0001F8
FC0001F8
FC0001F8
FC0001F8
FE0003F8
FE0003F8
FE0003F8
FF0007F8
7F8007F8
7FC01FF8
7FF07FF8
3FFFFFF8
1FFFFEF8
0FFFFCF8
07FFF8F8
03FFF0F8
007F80F8
ENDCHAR
STARTCHAR 00FB
ENCODING 251
SWIDTH 621 0
DWIDTH 38 0
BBX 29 47 4 0
BITMAP
001FC000
003FC000
007FE000
007FF000
00FDF800
01F8FC00
03F07E00
07E03F00
0FC03F00
00000080
00000000
00000000
00000000
00000000
FC0001F8
FC0001F8
FC0001F8
FC0001F8
FC0001F8
FC0001F8
FC0001F8
FC0001F8
FC0001F8
FC0001F8
FC0001F8
FC0001F8
FC0001F8
FC0001F8
FC0001F8
FC0001F8
FC0001F8
FC0001F8
FC0001F8
FC0001F8
FE0003F8
FE0003F8
FE0003F8
FF0007F8
7F8007F8
7FC01FF8
7FF07FF8
3FFFFFF8
1FFFFEF8
0FFFFCF8
07FFF8F8
03FFF0F8
007F80F8
ENDCHAR
STARTCHAR 00FC
ENCODING 252
SWIDTH 621 0
DWIDTH 38 0
BBX 29 44 4 0
BITMAP
07E03F00
07E03F00
07E03F00
07E03F00
07E03F00
07E03F00
00000000
00000000
00000000
00000000
00000000
FC0001F8
FC0001F8
FC0001F8
FC0001F8
FC0001F8
FC0001F8
FC0001F8
FC0001F8
FC0001F8
FC0001F8
FC0001F8
FC0001F8
FC0001F8
FC0001F8
FC0001F8
FC0001F8
FC0001F8
FC0001F8
FC0001F8
FC0001F8
FE0003F8
FE0003F8
FE0003F8
FF0007F8
7F8007F8
7FC01FF8
7FF07FF8
3FFFFFF8
1FFFFEF8
0FFFFCF8
07FFF8F8
03FFF0F8
007F80F8
ENDCHAR
STARTCHAR 00FD
ENCODING 253
SWIDTH 556 0
DWIDTH 34 0
BBX 32 64 1 -15
BITMAP
00003E00
00007C00
00007C00
00007C00
0000F800
0000F800
0001F000
0001F000
0001F000
0003E000
0003E000
00000000
00000000
00000000
00000000
00000000
FE00007F
FE00007E
7E00007E
7F0000FE
3F0000FC
3F8001FC
3F8001FC
1F8001F8
1FC003F8
0FC003F0
0FE003F0
0FE007F0
07E007E0
07F00FE0
03F00FC0
03F80FC0
01F81FC0
01F81F80
01FC1F80
00FC3F80
00FE3F00
007E7F00
007E7E00
007F7E00
003FFE00
003FFC00
001FFC00
001FFC00
001FF800
000FF800
000FF000
0007F000
0007F000
0007E000
0007E000
000FC000
000FC000
001FC000
001F8000
001F8000
003F8000
003F0000
003F0000
007E0000
007E0000
007E0000
00FC0000
00FC0000
ENDCHAR
STARTCHAR 00FE
ENCODING 254
SWIDTH 605 0
DWIDTH 37 0
BBX 31 58 4 -14
BITMAP
FE000000
FE000000
FE000000
FE000000
FE000000
FE000000
FE000000
FE000000
FE000000
FE000000
FE000000
FE0FF000
FE7FFC00
FFFFFF00
FFFFFF80
FFFFFFC0
FFFFFFE0
FFE03FF0
FF800FF0
FF0007F8
FF0003F8
FE0001FC
FE0001FC
FC0001FC
FC0000FC
FC0000FE
FC0000FE
FC0000FE
FC0000FE
FC0000FE
FC0000FC
FC0001FC
FE0001FC
FE0001FC
FF0003F8
FF0007F8
FF800FF8
FFE01FF0
FFFFFFE0
FFFFFFC0
FFFFFF80
FEFFFF00
FE7FFC00
FE0FF000
FE000000
FE000000
FE000000
FE000000
FE000000
FE000000
FE000000
FE000000
FE000000
FE000000
FE000000
FE000000
FE000000
FE000000
ENDCHAR
STARTCHAR 00FF
ENCODING 255
SWIDTH 556 0
DWIDTH 34 0
BBX 32 59 1 -15
BITMAP
01F81F80
01F81F80
01F81F80
01F81F80
01F81F80
01F81F80
00000000
00000000
00000000
00000000
00000000
FE00007F
FE00007E
7E00007E
7F0000FE
3F0000FC
3F8001FC
3F8001FC
1F8001F8
1FC003F8
0FC003F0
0FE003F0
0FE007F0
07E007E0
07F00FE0
03F00FC0
03F80FC0
01F81FC0
01F81F80
01FC1F80
00FC3F80
00FE3F00
007E7F00
007E7E00
007F7E00
003FFE00
003FFC00
001FFC00
001FFC00
001FF800
000FF800
000FF000
0007F000
0007F000
0007E000
0007E000
000FC000
000FC000
001FC000
001F8000
001F8000
003F8000
003F0000
003F0000
007E0000
007E0000
007E0000
00FC0000
00FC0000
ENDCHAR
ENDFONT
